<?xml version="1.0" encoding="UTF-8"?>
<!DOCTYPE svg PUBLIC "-//W3C//DTD SVG 1.1//EN" "http://www.w3.org/Graphics/SVG/1.1/DTD/svg11.dtd">
<svg xmlns="http://www.w3.org/2000/svg" version="1.1" width="1048px" height="257px" style="shape-rendering:geometricPrecision; text-rendering:geometricPrecision; image-rendering:optimizeQuality; fill-rule:evenodd; clip-rule:evenodd" xmlns:xlink="http://www.w3.org/1999/xlink">
<g><path style="opacity:1" fill="#fcf3cb" d="M 719.5,19.5 C 719.5,20.1667 719.5,20.8333 719.5,21.5C 715.5,21.5 711.5,21.5 707.5,21.5C 700.833,21.5 694.167,21.5 687.5,21.5C 697.943,19.7283 708.61,19.0616 719.5,19.5 Z"/></g>
<g><path style="opacity:1" fill="#f9eca7" d="M 719.5,19.5 C 746.167,19.5 772.833,19.5 799.5,19.5C 799.5,20.1667 799.5,20.8333 799.5,21.5C 772.833,21.5 746.167,21.5 719.5,21.5C 719.5,20.8333 719.5,20.1667 719.5,19.5 Z"/></g>
<g><path style="opacity:1" fill="#fbf2c6" d="M 799.5,19.5 C 810.172,19.3335 820.839,19.5002 831.5,20C 833.708,20.1909 835.708,20.6909 837.5,21.5C 835.5,21.5 833.5,21.5 831.5,21.5C 820.833,21.5 810.167,21.5 799.5,21.5C 799.5,20.8333 799.5,20.1667 799.5,19.5 Z"/></g>
<g><path style="opacity:1" fill="#fcdf67" d="M 707.5,21.5 C 711.5,21.5 715.5,21.5 719.5,21.5C 746.167,21.5 772.833,21.5 799.5,21.5C 810.167,21.5 820.833,21.5 831.5,21.5C 836.396,23.4461 841.729,24.1128 847.5,23.5C 849.167,23.5 850.833,23.5 852.5,23.5C 852.5,24.1667 852.5,24.8333 852.5,25.5C 804.843,24.2854 757.176,23.6187 709.5,23.5C 708.833,22.8333 708.167,22.1667 707.5,21.5 Z"/></g>
<g><path style="opacity:1" fill="#fceba0" d="M 831.5,21.5 C 833.5,21.5 835.5,21.5 837.5,21.5C 840.833,21.5 844.167,21.5 847.5,21.5C 847.5,22.1667 847.5,22.8333 847.5,23.5C 841.729,24.1128 836.396,23.4461 831.5,21.5 Z"/></g>
<g><path style="opacity:1" fill="#fdf2cd" d="M 847.5,21.5 C 853.598,20.8833 859.265,21.55 864.5,23.5C 860.5,23.5 856.5,23.5 852.5,23.5C 850.833,23.5 849.167,23.5 847.5,23.5C 847.5,22.8333 847.5,22.1667 847.5,21.5 Z"/></g>
<g><path style="opacity:1" fill="#fce27d" d="M 687.5,21.5 C 694.167,21.5 700.833,21.5 707.5,21.5C 708.167,22.1667 708.833,22.8333 709.5,23.5C 675.513,24.7079 641.513,25.3746 607.5,25.5C 623.5,24.1667 639.5,22.8333 655.5,21.5C 666.192,20.8269 676.859,20.8269 687.5,21.5 Z"/></g>
<g><path style="opacity:1" fill="#fed842" d="M 709.5,23.5 C 757.176,23.6187 804.843,24.2854 852.5,25.5C 858.167,25.5 863.833,25.5 869.5,25.5C 872.833,25.5 876.167,25.5 879.5,25.5C 884.396,27.4461 889.729,28.1128 895.5,27.5C 907.869,28.6692 920.202,30.0025 932.5,31.5C 932.389,32.1174 932.056,32.6174 931.5,33C 944.37,35.8774 957.37,38.0441 970.5,39.5C 973.167,39.5 975.833,39.5 978.5,39.5C 978.539,40.5832 978.873,41.5832 979.5,42.5C 981.833,43.1667 984.167,43.8333 986.5,44.5C 986.833,45.1667 987.167,45.8333 987.5,46.5C 991.687,48.297 996.02,49.6303 1000.5,50.5C 1002.84,51.3372 1004.84,52.6706 1006.5,54.5C 1008.4,55.4656 1010.4,55.7989 1012.5,55.5C 1017.91,57.9547 1020.57,62.288 1020.5,68.5C 1020.44,70.6397 1019.78,72.3064 1018.5,73.5C 1013.05,75.2915 1007.39,75.9582 1001.5,75.5C 998.5,75.5 995.5,75.5 992.5,75.5C 986.833,75.5 981.167,75.5 975.5,75.5C 970.604,73.5539 965.271,72.8872 959.5,73.5C 951.903,71.5332 943.903,70.8665 935.5,71.5C 930.5,71.5 925.5,71.5 920.5,71.5C 917.5,71.5 914.5,71.5 911.5,71.5C 906.604,69.5539 901.271,68.8872 895.5,69.5C 888.167,69.5 880.833,69.5 873.5,69.5C 870.167,69.5 866.833,69.5 863.5,69.5C 855.675,68.5079 847.675,67.8412 839.5,67.5C 832.833,67.5 826.167,67.5 819.5,67.5C 810.5,67.5 801.5,67.5 792.5,67.5C 792.389,66.8826 792.056,66.3826 791.5,66C 786.177,65.5006 780.844,65.334 775.5,65.5C 763.5,65.5 751.5,65.5 739.5,65.5C 738.167,65.5 736.833,65.5 735.5,65.5C 725.219,63.5238 714.552,62.8572 703.5,63.5C 694.833,63.5 686.167,63.5 677.5,63.5C 657.5,63.5 637.5,63.5 617.5,63.5C 563.5,63.5 509.5,63.5 455.5,63.5C 447.5,63.5 439.5,63.5 431.5,63.5C 417.5,63.5 403.5,63.5 389.5,63.5C 371.136,62.8467 353.136,63.5134 335.5,65.5C 331.833,65.5 328.167,65.5 324.5,65.5C 320.5,65.5 316.5,65.5 312.5,65.5C 306.491,65.3338 300.491,65.5005 294.5,66C 293.584,66.2784 292.918,66.7784 292.5,67.5C 287.167,67.5 281.833,67.5 276.5,67.5C 269.5,67.5 262.5,67.5 255.5,67.5C 247.097,66.8665 239.097,67.5332 231.5,69.5C 225.833,69.5 220.167,69.5 214.5,69.5C 206.427,70.1318 198.76,69.4651 191.5,67.5C 195.827,67.9843 199.827,67.3177 203.5,65.5C 215.518,65.098 227.518,64.4314 239.5,63.5C 239.5,62.1667 239.5,60.8333 239.5,59.5C 250.24,59.2842 260.906,59.9509 271.5,61.5C 271.5,60.1667 271.5,58.8333 271.5,57.5C 277.211,56.8116 282.545,55.4783 287.5,53.5C 290.167,53.5 292.833,53.5 295.5,53.5C 300.844,53.666 306.177,53.4994 311.5,53C 316.833,52 322.167,51 327.5,50C 335.493,49.5003 343.493,49.3336 351.5,49.5C 351.5,48.1667 351.5,46.8333 351.5,45.5C 369.489,44.5841 387.489,43.7508 405.5,43C 408.019,42.4136 410.019,41.2469 411.5,39.5C 412.833,39.5 414.167,39.5 415.5,39.5C 421.271,40.1128 426.604,39.4461 431.5,37.5C 433.167,37.5 434.833,37.5 436.5,37.5C 442.926,38.12 448.926,37.4533 454.5,35.5C 457.5,35.5 460.5,35.5 463.5,35.5C 471.84,35.6664 480.173,35.4997 488.5,35C 496.404,34.2051 504.071,33.0384 511.5,31.5C 514.698,32.0356 517.365,31.369 519.5,29.5C 524.167,29.5 528.833,29.5 533.5,29.5C 539.509,29.6662 545.509,29.4995 551.5,29C 552.056,28.6174 552.389,28.1174 552.5,27.5C 556.167,27.5 559.833,27.5 563.5,27.5C 578.538,28.1499 593.205,27.4833 607.5,25.5C 641.513,25.3746 675.513,24.7079 709.5,23.5 Z"/></g>
<g><path style="opacity:1" fill="#fcf1c1" d="M 655.5,21.5 C 639.5,22.8333 623.5,24.1667 607.5,25.5C 594.167,25.5 580.833,25.5 567.5,25.5C 580.514,23.918 593.848,22.7513 607.5,22C 623.497,21.5001 639.497,21.3334 655.5,21.5 Z"/></g>
<g><path style="opacity:1" fill="#fae48b" d="M 852.5,23.5 C 856.5,23.5 860.5,23.5 864.5,23.5C 865.833,23.5 867.167,23.5 868.5,23.5C 868.833,24.1667 869.167,24.8333 869.5,25.5C 863.833,25.5 858.167,25.5 852.5,25.5C 852.5,24.8333 852.5,24.1667 852.5,23.5 Z"/></g>
<g><path style="opacity:0.243" fill="#fcf0b8" d="M 565.5,25.5 C 564.833,26.1667 564.167,26.8333 563.5,27.5C 559.833,27.5 556.167,27.5 552.5,27.5C 547.167,27.5 541.833,27.5 536.5,27.5C 537.263,26.7321 538.263,26.2321 539.5,26C 548.16,25.5002 556.827,25.3336 565.5,25.5 Z"/></g>
<g><path style="opacity:1" fill="#fce37f" d="M 565.5,25.5 C 566.167,25.5 566.833,25.5 567.5,25.5C 580.833,25.5 594.167,25.5 607.5,25.5C 593.205,27.4833 578.538,28.1499 563.5,27.5C 564.167,26.8333 564.833,26.1667 565.5,25.5 Z"/></g>
<g><path style="opacity:1" fill="#fbe484" d="M 879.5,25.5 C 885.271,24.8872 890.604,25.5539 895.5,27.5C 889.729,28.1128 884.396,27.4461 879.5,25.5 Z"/></g>
<g><path style="opacity:1" fill="#fcefbf" d="M 534.5,27.5 C 534.167,28.1667 533.833,28.8333 533.5,29.5C 528.833,29.5 524.167,29.5 519.5,29.5C 515.5,29.5 511.5,29.5 507.5,29.5C 516.105,27.5289 525.105,26.8623 534.5,27.5 Z"/></g>
<g><path style="opacity:1" fill="#fce690" d="M 534.5,27.5 C 535.167,27.5 535.833,27.5 536.5,27.5C 541.833,27.5 547.167,27.5 552.5,27.5C 552.389,28.1174 552.056,28.6174 551.5,29C 545.509,29.4995 539.509,29.6662 533.5,29.5C 533.833,28.8333 534.167,28.1667 534.5,27.5 Z"/></g>
<g><path style="opacity:0.844" fill="#fbf3c8" d="M 503.5,29.5 C 503.167,30.1667 502.833,30.8333 502.5,31.5C 491.474,31.8187 480.474,32.4854 469.5,33.5C 472.488,31.8598 475.821,31.0265 479.5,31C 487.47,29.9783 495.47,29.4783 503.5,29.5 Z"/></g>
<g><path style="opacity:1" fill="#fbe891" d="M 503.5,29.5 C 504.833,29.5 506.167,29.5 507.5,29.5C 511.5,29.5 515.5,29.5 519.5,29.5C 517.365,31.369 514.698,32.0356 511.5,31.5C 508.5,31.5 505.5,31.5 502.5,31.5C 502.833,30.8333 503.167,30.1667 503.5,29.5 Z"/></g>
<g><path style="opacity:1" fill="#fceeb7" d="M 868.5,23.5 C 884.559,23.3439 900.559,24.1773 916.5,26C 922.725,27.2507 929.058,27.9173 935.5,28C 938.818,28.7538 941.818,29.9205 944.5,31.5C 940.5,31.5 936.5,31.5 932.5,31.5C 920.202,30.0025 907.869,28.6692 895.5,27.5C 890.604,25.5539 885.271,24.8872 879.5,25.5C 876.167,25.5 872.833,25.5 869.5,25.5C 869.167,24.8333 868.833,24.1667 868.5,23.5 Z"/></g>
<g><path style="opacity:1" fill="#fade68" d="M 502.5,31.5 C 505.5,31.5 508.5,31.5 511.5,31.5C 504.071,33.0384 496.404,34.2051 488.5,35C 480.173,35.4997 471.84,35.6664 463.5,35.5C 463.5,34.8333 463.5,34.1667 463.5,33.5C 465.5,33.5 467.5,33.5 469.5,33.5C 480.474,32.4854 491.474,31.8187 502.5,31.5 Z"/></g>
<g><path style="opacity:1" fill="#fceeb4" d="M 944.5,31.5 C 949.179,31.3342 953.845,31.5008 958.5,32C 961.98,32.9373 965.313,34.104 968.5,35.5C 963.456,35.8275 958.456,35.4941 953.5,34.5C 950.061,34.0935 947.061,33.0935 944.5,31.5 Z"/></g>
<g><path style="opacity:1" fill="#fbe588" d="M 454.5,35.5 C 448.926,37.4533 442.926,38.12 436.5,37.5C 436.611,36.8826 436.944,36.3826 437.5,36C 443.157,35.5006 448.824,35.3339 454.5,35.5 Z"/></g>
<g><path style="opacity:1" fill="#fbde68" d="M 932.5,31.5 C 936.5,31.5 940.5,31.5 944.5,31.5C 947.061,33.0935 950.061,34.0935 953.5,34.5C 958.456,35.4941 963.456,35.8275 968.5,35.5C 969.167,36.8333 969.833,38.1667 970.5,39.5C 957.37,38.0441 944.37,35.8774 931.5,33C 932.056,32.6174 932.389,32.1174 932.5,31.5 Z"/></g>
<g><path style="opacity:1" fill="#fcefbb" d="M 463.5,33.5 C 463.5,34.1667 463.5,34.8333 463.5,35.5C 460.5,35.5 457.5,35.5 454.5,35.5C 448.824,35.3339 443.157,35.5006 437.5,36C 436.944,36.3826 436.611,36.8826 436.5,37.5C 434.833,37.5 433.167,37.5 431.5,37.5C 425.729,36.8872 420.396,37.5539 415.5,39.5C 414.167,39.5 412.833,39.5 411.5,39.5C 404.5,39.5 397.5,39.5 390.5,39.5C 390.918,38.7784 391.584,38.2784 392.5,38C 408.128,36.634 423.794,35.3007 439.5,34C 447.493,33.5003 455.493,33.3336 463.5,33.5 Z"/></g>
<g><path style="opacity:1" fill="#fde588" d="M 431.5,37.5 C 426.604,39.4461 421.271,40.1128 415.5,39.5C 420.396,37.5539 425.729,36.8872 431.5,37.5 Z"/></g>
<g><path style="opacity:1" fill="#fbedae" d="M 968.5,35.5 C 973.362,36.715 978.362,37.715 983.5,38.5C 985.544,39.0652 987.21,40.0652 988.5,41.5C 984.917,41.7681 981.584,41.1014 978.5,39.5C 975.833,39.5 973.167,39.5 970.5,39.5C 969.833,38.1667 969.167,36.8333 968.5,35.5 Z"/></g>
<g><path style="opacity:1" fill="#fdf2c5" d="M 390.5,39.5 C 385.265,41.45 379.598,42.1167 373.5,41.5C 374.263,40.7321 375.263,40.2321 376.5,40C 381.155,39.5008 385.821,39.3342 390.5,39.5 Z"/></g>
<g><path style="opacity:1" fill="#feefc2" d="M 367.5,41.5 C 364.316,43.4136 360.649,44.0803 356.5,43.5C 356.918,42.7784 357.584,42.2784 358.5,42C 361.482,41.502 364.482,41.3354 367.5,41.5 Z"/></g>
<g><path style="opacity:1" fill="#fbe072" d="M 390.5,39.5 C 397.5,39.5 404.5,39.5 411.5,39.5C 410.019,41.2469 408.019,42.4136 405.5,43C 387.489,43.7508 369.489,44.5841 351.5,45.5C 351.5,44.8333 351.5,44.1667 351.5,43.5C 353.167,43.5 354.833,43.5 356.5,43.5C 360.649,44.0803 364.316,43.4136 367.5,41.5C 369.5,41.5 371.5,41.5 373.5,41.5C 379.598,42.1167 385.265,41.45 390.5,39.5 Z"/></g>
<g><path style="opacity:1" fill="#fcdb57" d="M 978.5,39.5 C 981.584,41.1014 984.917,41.7681 988.5,41.5C 989.007,42.8589 990.007,43.8589 991.5,44.5C 998.082,46.5827 1004.42,49.2493 1010.5,52.5C 1011.61,53.2652 1012.28,54.2652 1012.5,55.5C 1010.4,55.7989 1008.4,55.4656 1006.5,54.5C 1004.84,52.6706 1002.84,51.3372 1000.5,50.5C 996.02,49.6303 991.687,48.297 987.5,46.5C 987.167,45.8333 986.833,45.1667 986.5,44.5C 984.167,43.8333 981.833,43.1667 979.5,42.5C 978.873,41.5832 978.539,40.5832 978.5,39.5 Z"/></g>
<g><path style="opacity:1" fill="#faf2be" d="M 351.5,43.5 C 351.5,44.1667 351.5,44.8333 351.5,45.5C 340.89,46.8884 330.223,47.5551 319.5,47.5C 329.792,45.3972 340.459,44.0638 351.5,43.5 Z"/></g>
<g><path style="opacity:1" fill="#fceeb2" d="M 319.5,47.5 C 311.765,50.3471 303.765,52.3471 295.5,53.5C 292.833,53.5 290.167,53.5 287.5,53.5C 272.151,54.6686 256.818,56.0019 241.5,57.5C 244.993,56.1253 248.66,54.9586 252.5,54C 257.679,53.9455 262.679,53.2789 267.5,52C 284.882,50.298 302.216,48.798 319.5,47.5 Z"/></g>
<g><path style="opacity:1" fill="#fcdd62" d="M 351.5,45.5 C 351.5,46.8333 351.5,48.1667 351.5,49.5C 343.493,49.3336 335.493,49.5003 327.5,50C 322.167,51 316.833,52 311.5,53C 306.177,53.4994 300.844,53.666 295.5,53.5C 303.765,52.3471 311.765,50.3471 319.5,47.5C 330.223,47.5551 340.89,46.8884 351.5,45.5 Z"/></g>
<g><path style="opacity:1" fill="#fdeeb0" d="M 988.5,41.5 C 1001.21,43.3182 1011.88,48.9849 1020.5,58.5C 1022.82,64.1069 1022.99,69.7736 1021,75.5C 1020.29,76.9733 1019.12,77.6399 1017.5,77.5C 1017.83,76.1667 1018.17,74.8333 1018.5,73.5C 1019.78,72.3064 1020.44,70.6397 1020.5,68.5C 1020.57,62.288 1017.91,57.9547 1012.5,55.5C 1012.28,54.2652 1011.61,53.2652 1010.5,52.5C 1004.42,49.2493 998.082,46.5827 991.5,44.5C 990.007,43.8589 989.007,42.8589 988.5,41.5 Z"/></g>
<g><path style="opacity:1" fill="#fddb5b" d="M 287.5,53.5 C 282.545,55.4783 277.211,56.8116 271.5,57.5C 271.5,58.8333 271.5,60.1667 271.5,61.5C 260.906,59.9509 250.24,59.2842 239.5,59.5C 239.5,58.8333 239.5,58.1667 239.5,57.5C 240.167,57.5 240.833,57.5 241.5,57.5C 256.818,56.0019 272.151,54.6686 287.5,53.5 Z"/></g>
<g><path style="opacity:0.141" fill="#fcefb7" d="M 239.5,57.5 C 239.5,58.1667 239.5,58.8333 239.5,59.5C 227.412,60.931 215.412,62.2643 203.5,63.5C 201.167,63.5 198.833,63.5 196.5,63.5C 196.918,62.7784 197.584,62.2784 198.5,62C 203.348,61.9409 208.015,61.2742 212.5,60C 221.664,59.7015 230.664,58.8682 239.5,57.5 Z"/></g>
<g><path style="opacity:1" fill="#fcdc5a" d="M 239.5,59.5 C 239.5,60.8333 239.5,62.1667 239.5,63.5C 227.518,64.4314 215.518,65.098 203.5,65.5C 203.5,64.8333 203.5,64.1667 203.5,63.5C 215.412,62.2643 227.412,60.931 239.5,59.5 Z"/></g>
<g><path style="opacity:0.973" fill="#f8da62" d="M 389.5,63.5 C 387.5,64.1667 385.5,64.8333 383.5,65.5C 370.167,65.5 356.833,65.5 343.5,65.5C 340.833,65.5 338.167,65.5 335.5,65.5C 353.136,63.5134 371.136,62.8467 389.5,63.5 Z"/></g>
<g><path style="opacity:1" fill="#f6f1c2" d="M 617.5,63.5 C 637.5,63.5 657.5,63.5 677.5,63.5C 677.5,64.1667 677.5,64.8333 677.5,65.5C 657.31,65.7768 637.31,65.1102 617.5,63.5 Z"/></g>
<g><path style="opacity:0.157" fill="#f8f2b0" d="M 389.5,63.5 C 403.5,63.5 417.5,63.5 431.5,63.5C 426.167,64.1667 420.833,64.8333 415.5,65.5C 404.833,65.5 394.167,65.5 383.5,65.5C 385.5,64.8333 387.5,64.1667 389.5,63.5 Z"/></g>
<g><path style="opacity:0.02" fill="#fcfad4" d="M 431.5,63.5 C 439.5,63.5 447.5,63.5 455.5,63.5C 453.031,64.3171 450.365,64.8171 447.5,65C 436.839,65.4998 426.172,65.6665 415.5,65.5C 420.833,64.8333 426.167,64.1667 431.5,63.5 Z"/></g>
<g><path style="opacity:0.422" fill="#f9ec8d" d="M 677.5,63.5 C 686.167,63.5 694.833,63.5 703.5,63.5C 706.167,64.1667 708.833,64.8333 711.5,65.5C 700.167,65.5 688.833,65.5 677.5,65.5C 677.5,64.8333 677.5,64.1667 677.5,63.5 Z"/></g>
<g><path style="opacity:0.608" fill="#f8d964" d="M 703.5,63.5 C 714.552,62.8572 725.219,63.5238 735.5,65.5C 727.5,65.5 719.5,65.5 711.5,65.5C 708.833,64.8333 706.167,64.1667 703.5,63.5 Z"/></g>
<g><path style="opacity:0.039" fill="#f9f5d3" d="M 324.5,65.5 C 328.167,65.5 331.833,65.5 335.5,65.5C 338.167,65.5 340.833,65.5 343.5,65.5C 337.383,66.8792 331.05,67.5459 324.5,67.5C 324.5,66.8333 324.5,66.1667 324.5,65.5 Z"/></g>
<g><path style="opacity:1" fill="#fbf2be" d="M 192.5,63.5 C 192.389,64.1174 192.056,64.6174 191.5,65C 188.629,65.1177 185.962,65.7844 183.5,67C 178.845,67.4992 174.179,67.6658 169.5,67.5C 169.611,66.8826 169.944,66.3826 170.5,66C 178.003,65.696 185.337,64.8627 192.5,63.5 Z"/></g>
<g><path style="opacity:0.408" fill="#f5e480" d="M 312.5,65.5 C 309.5,66.1667 306.5,66.8333 303.5,67.5C 299.833,67.5 296.167,67.5 292.5,67.5C 292.918,66.7784 293.584,66.2784 294.5,66C 300.491,65.5005 306.491,65.3338 312.5,65.5 Z"/></g>
<g><path style="opacity:0.102" fill="#faf5b6" d="M 312.5,65.5 C 316.5,65.5 320.5,65.5 324.5,65.5C 324.5,66.1667 324.5,66.8333 324.5,67.5C 317.5,67.5 310.5,67.5 303.5,67.5C 306.5,66.8333 309.5,66.1667 312.5,65.5 Z"/></g>
<g><path style="opacity:0.04" fill="#faf6cc" d="M 739.5,65.5 C 751.5,65.5 763.5,65.5 775.5,65.5C 775.5,66.1667 775.5,66.8333 775.5,67.5C 763.286,67.9047 751.286,67.238 739.5,65.5 Z"/></g>
<g><path style="opacity:0.4" fill="#f9eb95" d="M 775.5,65.5 C 780.844,65.334 786.177,65.5006 791.5,66C 792.056,66.3826 792.389,66.8826 792.5,67.5C 786.833,67.5 781.167,67.5 775.5,67.5C 775.5,66.8333 775.5,66.1667 775.5,65.5 Z"/></g>
<g><path style="opacity:1" fill="#fbf0bd" d="M 165.5,67.5 C 163.5,68.8333 161.5,70.1667 159.5,71.5C 157.167,71.5 154.833,71.5 152.5,71.5C 149.5,71.5 146.5,71.5 143.5,71.5C 150.664,69.7114 157.998,68.378 165.5,67.5 Z"/></g>
<g><path style="opacity:0.625" fill="#f7df6a" d="M 255.5,67.5 C 255.5,68.1667 255.5,68.8333 255.5,69.5C 247.833,69.5 240.167,69.5 232.5,69.5C 232.167,69.5 231.833,69.5 231.5,69.5C 239.097,67.5332 247.097,66.8665 255.5,67.5 Z"/></g>
<g><path style="opacity:0.133" fill="#f7f3b7" d="M 255.5,67.5 C 262.5,67.5 269.5,67.5 276.5,67.5C 275.048,68.3019 273.382,68.8019 271.5,69C 266.177,69.4994 260.844,69.666 255.5,69.5C 255.5,68.8333 255.5,68.1667 255.5,67.5 Z"/></g>
<g><path style="opacity:0.093" fill="#faf7c7" d="M 819.5,67.5 C 826.167,67.5 832.833,67.5 839.5,67.5C 839.5,68.1667 839.5,68.8333 839.5,69.5C 834.156,69.666 828.823,69.4994 823.5,69C 821.942,68.79 820.609,68.29 819.5,67.5 Z"/></g>
<g><path style="opacity:0.414" fill="#fcf191" d="M 839.5,67.5 C 847.675,67.8412 855.675,68.5079 863.5,69.5C 855.5,69.5 847.5,69.5 839.5,69.5C 839.5,68.8333 839.5,68.1667 839.5,67.5 Z"/></g>
<g><path style="opacity:1" fill="#fce27b" d="M 192.5,63.5 C 193.833,63.5 195.167,63.5 196.5,63.5C 198.833,63.5 201.167,63.5 203.5,63.5C 203.5,64.1667 203.5,64.8333 203.5,65.5C 199.827,67.3177 195.827,67.9843 191.5,67.5C 180.833,69.054 170.167,70.3873 159.5,71.5C 161.5,70.1667 163.5,68.8333 165.5,67.5C 166.833,67.5 168.167,67.5 169.5,67.5C 174.179,67.6658 178.845,67.4992 183.5,67C 185.962,65.7844 188.629,65.1177 191.5,65C 192.056,64.6174 192.389,64.1174 192.5,63.5 Z"/></g>
<g><path style="opacity:1" fill="#fbda58" d="M 191.5,67.5 C 198.76,69.4651 206.427,70.1318 214.5,69.5C 214.5,70.1667 214.5,70.8333 214.5,71.5C 208.5,71.5 202.5,71.5 196.5,71.5C 189.95,71.4541 183.617,72.1208 177.5,73.5C 175.167,73.5 172.833,73.5 170.5,73.5C 166.833,73.5 163.167,73.5 159.5,73.5C 156.612,74.0102 154.279,73.3435 152.5,71.5C 154.833,71.5 157.167,71.5 159.5,71.5C 170.167,70.3873 180.833,69.054 191.5,67.5 Z"/></g>
<g><path style="opacity:0.09" fill="#f9f4c2" d="M 214.5,69.5 C 220.167,69.5 225.833,69.5 231.5,69.5C 231.833,69.5 232.167,69.5 232.5,69.5C 232.082,70.2216 231.416,70.7216 230.5,71C 225.177,71.4994 219.844,71.666 214.5,71.5C 214.5,70.8333 214.5,70.1667 214.5,69.5 Z"/></g>
<g><path style="opacity:0.157" fill="#f8f4c1" d="M 873.5,69.5 C 880.833,69.5 888.167,69.5 895.5,69.5C 895.5,70.1667 895.5,70.8333 895.5,71.5C 887.921,71.9056 880.588,71.2389 873.5,69.5 Z"/></g>
<g><path style="opacity:0.525" fill="#f6e47b" d="M 895.5,69.5 C 901.271,68.8872 906.604,69.5539 911.5,71.5C 906.167,71.5 900.833,71.5 895.5,71.5C 895.5,70.8333 895.5,70.1667 895.5,69.5 Z"/></g>
<g><path style="opacity:1" fill="#f4dd71" d="M 935.5,71.5 C 943.903,70.8665 951.903,71.5332 959.5,73.5C 951.5,73.5 943.5,73.5 935.5,73.5C 935.5,72.8333 935.5,72.1667 935.5,71.5 Z"/></g>
<g><path style="opacity:1" fill="#f9e176" d="M 141.5,71.5 C 142.167,71.5 142.833,71.5 143.5,71.5C 146.5,71.5 149.5,71.5 152.5,71.5C 154.279,73.3435 156.612,74.0102 159.5,73.5C 159.5,74.1667 159.5,74.8333 159.5,75.5C 155.5,75.5 151.5,75.5 147.5,75.5C 144.428,75.8174 141.428,75.4841 138.5,74.5C 139.993,73.8589 140.993,72.8589 141.5,71.5 Z"/></g>
<g><path style="opacity:0.096" fill="#fbf7bd" d="M 196.5,71.5 C 196.082,72.2216 195.416,72.7216 194.5,73C 188.843,73.4994 183.176,73.6661 177.5,73.5C 183.617,72.1208 189.95,71.4541 196.5,71.5 Z"/></g>
<g><path style="opacity:0.125" fill="#faf6c5" d="M 920.5,71.5 C 925.5,71.5 930.5,71.5 935.5,71.5C 935.5,72.1667 935.5,72.8333 935.5,73.5C 931.486,73.6655 927.486,73.4988 923.5,73C 922.263,72.7679 921.263,72.2679 920.5,71.5 Z"/></g>
<g><path style="opacity:0.075" fill="#f9f4c5" d="M 159.5,73.5 C 163.167,73.5 166.833,73.5 170.5,73.5C 167.124,75.0823 163.458,75.7489 159.5,75.5C 159.5,74.8333 159.5,74.1667 159.5,73.5 Z"/></g>
<g><path style="opacity:0.22" fill="#f8f3b6" d="M 959.5,73.5 C 965.271,72.8872 970.604,73.5539 975.5,75.5C 971.154,75.6657 966.821,75.499 962.5,75C 961.263,74.7679 960.263,74.2679 959.5,73.5 Z"/></g>
<g><path style="opacity:1" fill="#161616" d="M 71.5,84.5 C 71.0269,83.0937 70.0269,82.427 68.5,82.5C 51.8417,75.5783 40.3417,80.5783 34,97.5C 28.6662,115.166 27.1662,133.166 29.5,151.5C 29.2938,154.495 29.9605,157.162 31.5,159.5C 34.0819,169.48 40.0819,176.647 49.5,181C 60.719,183.594 69.8856,180.428 77,171.5C 80.9418,164.818 83.7752,157.818 85.5,150.5C 86.5,150.167 87.1667,149.5 87.5,148.5C 88.7479,149.334 89.4146,150.667 89.5,152.5C 88.8326,158.843 88.1659,165.177 87.5,171.5C 86.8333,175.833 86.1667,180.167 85.5,184.5C 83.5483,181.882 81.215,179.548 78.5,177.5C 57.7651,191.081 37.7651,189.915 18.5,174C 8.03798,163.907 1.70465,151.74 -0.5,137.5C -0.5,133.167 -0.5,128.833 -0.5,124.5C 0.705184,115.553 3.70518,107.22 8.5,99.5C 9.90632,99.0269 10.573,98.0269 10.5,96.5C 22.168,79.9876 38.168,72.8209 58.5,75C 65.0702,76.6257 71.4035,78.7924 77.5,81.5C 81.1509,81.2567 83.9843,79.5901 86,76.5C 86.8699,77.1079 87.3699,77.9412 87.5,79C 86.6997,89.7996 86.1997,100.633 86,111.5C 84.3141,114.022 82.9808,113.689 82,110.5C 80.7259,100.825 77.2259,92.1582 71.5,84.5 Z"/></g>
<g><path style="opacity:1" fill="#181818" d="M 309.5,74.5 C 321.496,75.4876 324.996,81.4876 320,92.5C 312.92,98.0639 306.92,97.0639 302,89.5C 299.967,82.0764 302.467,77.0764 309.5,74.5 Z"/></g>
<g><path style="opacity:0.999" fill="#121212" d="M 655.5,184.5 C 655.762,183.022 655.429,181.689 654.5,180.5C 653.893,180.624 653.56,180.957 653.5,181.5C 649.307,185.831 644.14,187.497 638,186.5C 622.186,185.91 612.186,177.91 608,162.5C 606.389,156.046 606.222,149.713 607.5,143.5C 609.025,140.417 610.025,137.084 610.5,133.5C 611.946,128.939 614.613,125.272 618.5,122.5C 620.027,122.573 621.027,121.906 621.5,120.5C 626.426,116.639 632.092,114.972 638.5,115.5C 644.662,114.778 649.996,116.444 654.5,120.5C 654.369,121.376 654.702,122.043 655.5,122.5C 655.833,117.5 656.167,112.5 656.5,107.5C 656.679,99.9381 656.012,92.6048 654.5,85.5C 653.942,84.2101 652.942,83.3768 651.5,83C 648.305,82.8195 645.305,82.3195 642.5,81.5C 644.833,80.8333 647.167,80.1667 649.5,79.5C 657.197,78.6637 664.864,76.997 672.5,74.5C 673.442,74.6082 674.275,74.9415 675,75.5C 676.801,88.2984 676.967,101.132 675.5,114C 676.306,135.48 676.806,156.98 677,178.5C 679.069,179.264 681.236,179.764 683.5,180C 683.957,180.414 684.291,180.914 684.5,181.5C 681.605,183.836 678.439,184.17 675,182.5C 668.984,183.05 663.151,184.383 657.5,186.5C 656.287,186.253 655.62,185.586 655.5,184.5 Z M 652.5,123.5 C 652.932,124.71 653.599,125.71 654.5,126.5C 654.5,126.833 654.5,127.167 654.5,127.5C 655.358,140.813 655.691,154.147 655.5,167.5C 654.527,169.948 654.194,172.615 654.5,175.5C 653.094,175.973 652.427,176.973 652.5,178.5C 651.167,179.5 649.833,180.5 648.5,181.5C 646.236,182.219 643.903,182.552 641.5,182.5C 638.904,181.074 636.737,179.074 635,176.5C 632.747,171.586 631.247,166.586 630.5,161.5C 630.368,152.809 630.701,144.142 631.5,135.5C 632.438,130.514 634.438,126.014 637.5,122C 643.096,118.257 648.096,118.757 652.5,123.5 Z"/></g>
<g><path style="opacity:1" fill="#faeaa3" d="M 141.5,71.5 C 140.993,72.8589 139.993,73.8589 138.5,74.5C 141.428,75.4841 144.428,75.8174 147.5,75.5C 146.391,76.29 145.058,76.79 143.5,77C 133.742,77.4605 124.075,78.2938 114.5,79.5C 113.325,79.719 112.325,79.3857 111.5,78.5C 114.939,78.0935 117.939,77.0935 120.5,75.5C 127.407,74.0812 134.407,72.7479 141.5,71.5 Z"/></g>
<g><path style="opacity:0.894" fill="#646663" d="M 445.5,75.5 C 443.162,77.0395 440.495,77.7062 437.5,77.5C 439.905,76.2318 442.572,75.5651 445.5,75.5 Z"/></g>
<g><path style="opacity:0.133" fill="#f8f5c3" d="M 992.5,75.5 C 995.5,75.5 998.5,75.5 1001.5,75.5C 1001.5,76.1667 1001.5,76.8333 1001.5,77.5C 998.171,77.7847 995.171,77.1181 992.5,75.5 Z"/></g>
<g><path style="opacity:0.533" fill="#f8e27a" d="M 1018.5,73.5 C 1018.17,74.8333 1017.83,76.1667 1017.5,77.5C 1012.17,77.5 1006.83,77.5 1001.5,77.5C 1001.5,76.8333 1001.5,76.1667 1001.5,75.5C 1007.39,75.9582 1013.05,75.2915 1018.5,73.5 Z"/></g>
<g><path style="opacity:1" fill="#131313" d="M 859.5,164.5 C 861.163,162.562 861.829,160.228 861.5,157.5C 861.354,155.058 862.187,154.391 864,155.5C 863.946,165.489 863.779,175.489 863.5,185.5C 848.359,185.19 833.359,185.19 818.5,185.5C 804.817,185.142 791.151,184.476 777.5,183.5C 777.709,182.914 778.043,182.414 778.5,182C 782.25,181.74 785.916,181.073 789.5,180C 790.191,178.933 790.691,177.766 791,176.5C 791.167,161.5 791.333,146.5 791.5,131.5C 791.63,114.791 791.13,98.1243 790,81.5C 788.333,80.8333 786.667,80.1667 785,79.5C 782.482,81.0278 780.315,80.6945 778.5,78.5C 778.709,77.914 779.043,77.414 779.5,77C 795.167,76.3333 810.833,76.3333 826.5,77C 827.458,78.1475 827.125,79.1475 825.5,80C 821.991,79.9789 818.825,80.8122 816,82.5C 815.5,115.165 815.333,147.832 815.5,180.5C 826.216,180.844 836.882,180.344 847.5,179C 854.206,176.428 858.206,171.595 859.5,164.5 Z"/></g>
<g><path style="opacity:1" fill="#faefba" d="M 120.5,75.5 C 117.939,77.0935 114.939,78.0935 111.5,78.5C 112.325,79.3857 113.325,79.719 114.5,79.5C 107.621,81.0036 100.788,83.0036 94,85.5C 92.2377,84.4091 90.4044,83.4091 88.5,82.5C 88.8333,81.8333 89.1667,81.1667 89.5,80.5C 99.7072,77.9331 110.041,76.2664 120.5,75.5 Z"/></g>
<g><path style="opacity:0.628" fill="#5c5c5c" d="M 449.5,75.5 C 450.167,91.8333 450.833,108.167 451.5,124.5C 451.44,125.043 451.107,125.376 450.5,125.5C 449.501,108.847 449.167,92.18 449.5,75.5 Z"/></g>
<g><path style="opacity:0.725" fill="#5c5c5c" d="M 649.5,79.5 C 647.167,80.1667 644.833,80.8333 642.5,81.5C 641.957,81.44 641.624,81.1067 641.5,80.5C 644.086,79.52 646.753,79.1866 649.5,79.5 Z"/></g>
<g><path style="opacity:0.761" fill="#6a6a6a" d="M 420.5,79.5 C 420.167,80.1667 419.833,80.8333 419.5,81.5C 417.207,80.6987 417.54,80.032 420.5,79.5 Z"/></g>
<g><path style="opacity:0.82" fill="#707070" d="M 68.5,82.5 C 70.0269,82.427 71.0269,83.0937 71.5,84.5C 69.9731,84.573 68.9731,83.9063 68.5,82.5 Z"/></g>
<g><path style="opacity:0.809" fill="#525252" d="M 654.5,85.5 C 656.012,92.6048 656.679,99.9381 656.5,107.5C 656.167,112.5 655.833,117.5 655.5,122.5C 654.702,122.043 654.369,121.376 654.5,120.5C 655.804,109.439 655.804,97.7728 654.5,85.5 Z"/></g>
<g><path style="opacity:0.494" fill="#828282" d="M 10.5,96.5 C 10.573,98.0269 9.90632,99.0269 8.5,99.5C 8.42702,97.9731 9.09368,96.9731 10.5,96.5 Z"/></g>
<g><path style="opacity:0.753" fill="#707070" d="M 122.5,115.5 C 122.062,115.435 121.728,115.601 121.5,116C 122.737,116.232 123.737,116.732 124.5,117.5C 121.794,117.575 119.127,117.908 116.5,118.5C 116.918,117.778 117.584,117.278 118.5,117C 117.906,116.536 117.239,116.369 116.5,116.5C 117.997,115.694 119.664,115.028 121.5,114.5C 122.107,114.624 122.44,114.957 122.5,115.5 Z"/></g>
<g><path style="opacity:0.999" fill="#131313" d="M 149.5,122.5 C 149.427,124.027 150.094,125.027 151.5,125.5C 152.09,126.766 152.59,128.099 153,129.5C 153.061,145.553 153.728,161.553 155,177.5C 155.739,178.574 156.739,179.241 158,179.5C 160.764,177.873 163.597,176.54 166.5,175.5C 165.857,178.988 163.857,181.488 160.5,183C 153.277,186.99 145.944,187.324 138.5,184C 136.84,182.512 135.84,180.679 135.5,178.5C 135.762,177.022 135.429,175.689 134.5,174.5C 133.893,174.624 133.56,174.957 133.5,175.5C 128.136,184.688 120.136,188.188 109.5,186C 103.338,183.192 100.004,178.358 99.5,171.5C 101.534,159.631 108.534,152.464 120.5,150C 123.757,148.957 127.09,148.457 130.5,148.5C 131.833,148.5 133.167,148.5 134.5,148.5C 134.666,141.825 134.5,135.158 134,128.5C 133.79,126.942 133.29,125.609 132.5,124.5C 132.715,122.821 132.048,121.821 130.5,121.5C 128.81,119.658 126.81,118.325 124.5,117.5C 123.737,116.732 122.737,116.232 121.5,116C 121.728,115.601 122.062,115.435 122.5,115.5C 129.189,114.521 135.856,115.021 142.5,117C 145.595,117.935 147.929,119.769 149.5,122.5 Z M 132.5,150.5 C 133.817,157.712 133.65,165.046 132,172.5C 128.053,179.152 124.053,179.152 120,172.5C 117.74,161.339 121.907,154.005 132.5,150.5 Z"/></g>
<g><path style="opacity:1" fill="#101010" d="M 194.5,115.5 C 195.833,118.833 197.167,122.167 198.5,125.5C 198.5,126.167 198.5,126.833 198.5,127.5C 198.5,127.833 198.5,128.167 198.5,128.5C 197.732,129.263 197.232,130.263 197,131.5C 196.172,146.339 196.339,161.006 197.5,175.5C 198.461,177.265 198.795,179.265 198.5,181.5C 200.857,181.337 203.19,181.503 205.5,182C 205.957,182.414 206.291,182.914 206.5,183.5C 196.524,184.499 186.524,185.166 176.5,185.5C 172.651,185.632 168.984,185.132 165.5,184C 169.115,183.115 172.615,181.948 176,180.5C 176.667,163.167 176.667,145.833 176,128.5C 175.5,127.333 174.667,126.5 173.5,126C 169.972,125.911 166.638,125.244 163.5,124C 169.659,122.21 175.992,120.877 182.5,120C 186.631,118.765 190.631,117.265 194.5,115.5 Z"/></g>
<g><path style="opacity:0.408" fill="#969696" d="M 194.5,115.5 C 195.209,114.596 196.209,114.263 197.5,114.5C 197.187,118.042 197.521,121.375 198.5,124.5C 198.5,124.833 198.5,125.167 198.5,125.5C 197.167,122.167 195.833,118.833 194.5,115.5 Z"/></g>
<g><path style="opacity:1" fill="#131313" d="M 276.5,125.5 C 276.41,128.152 277.076,130.485 278.5,132.5C 278.333,148.503 278.5,164.503 279,180.5C 281.826,182.34 284.993,183.006 288.5,182.5C 288.5,183.5 288.5,184.5 288.5,185.5C 275.241,185.011 262.241,184.844 249.5,185C 248.167,184.333 248.167,183.667 249.5,183C 251.92,182.71 254.254,182.21 256.5,181.5C 257.662,163.671 257.829,145.671 257,127.5C 256.764,125.881 255.931,124.881 254.5,124.5C 254.082,123.778 253.416,123.278 252.5,123C 246.419,121.142 241.919,122.975 239,128.5C 238.5,146.164 238.333,163.83 238.5,181.5C 240.279,183.344 242.612,184.01 245.5,183.5C 246.738,183.81 246.738,184.31 245.5,185C 234.509,184.941 223.842,185.107 213.5,185.5C 208.618,183.331 209.285,182.331 215.5,182.5C 216.832,174.026 217.498,165.193 217.5,156C 217.5,146.994 217.166,138.16 216.5,129.5C 215.731,127.333 214.731,125.166 213.5,123C 209.745,122.245 206.078,122.411 202.5,123.5C 201.596,122.791 201.263,121.791 201.5,120.5C 211.402,113.114 221.736,112.614 232.5,119C 234,121.167 235.5,123.333 237,125.5C 242.11,118.027 249.277,114.36 258.5,114.5C 267.144,114.193 273.144,117.86 276.5,125.5 Z"/></g>
<g><path style="opacity:1" fill="#0d0d0d" d="M 299.5,181.5 C 301.485,165.868 302.151,149.868 301.5,133.5C 301.5,133.167 301.5,132.833 301.5,132.5C 302.055,128.988 301.388,125.988 299.5,123.5C 296.154,122.997 292.821,122.33 289.5,121.5C 289.624,120.893 289.957,120.56 290.5,120.5C 295.766,120.811 300.766,120.145 305.5,118.5C 310.617,117.637 315.617,116.304 320.5,114.5C 321.086,114.709 321.586,115.043 322,115.5C 322.222,137.519 322.722,159.519 323.5,181.5C 326.518,181.335 329.518,181.502 332.5,182C 333.821,183.545 333.488,184.711 331.5,185.5C 318.668,184.438 305.335,184.272 291.5,185C 290.185,183.605 290.519,182.605 292.5,182C 294.81,181.503 297.143,181.337 299.5,181.5 Z"/></g>
<g><path style="opacity:1" fill="#080808" d="M 363.5,115.5 C 364.5,115.5 365.5,115.5 366.5,115.5C 366.187,119.042 366.521,122.375 367.5,125.5C 368.338,125.842 368.672,126.508 368.5,127.5C 367.361,144.789 367.195,162.123 368,179.5C 370.519,180.88 373.019,182.213 375.5,183.5C 369.948,184.188 364.448,184.854 359,185.5C 358.329,184.748 357.496,184.414 356.5,184.5C 349.825,184.666 343.158,184.5 336.5,184C 337.056,183.617 337.389,183.117 337.5,182.5C 340.206,182.425 342.873,182.092 345.5,181.5C 346.222,181.082 346.722,180.416 347,179.5C 347.828,163.328 347.661,147.328 346.5,131.5C 346.975,128.918 346.308,126.918 344.5,125.5C 341.15,125.665 337.817,125.498 334.5,125C 333.167,124.333 333.167,123.667 334.5,123C 336.134,122.506 337.801,122.34 339.5,122.5C 342.187,122.664 344.854,122.497 347.5,122C 348.416,121.722 349.082,121.222 349.5,120.5C 354.319,119.227 358.985,117.561 363.5,115.5 Z"/></g>
<g><path style="opacity:1" fill="#151515" d="M 408.5,180.5 C 410.635,182.369 413.302,183.036 416.5,182.5C 418.549,182.706 418.883,183.539 417.5,185C 416,185.167 414.5,185.333 413,185.5C 401.68,184.766 390.347,184.432 379,184.5C 378.383,183.551 378.549,182.718 379.5,182C 381.764,181.764 383.931,181.264 386,180.5C 386.932,162.122 386.599,143.789 385,125.5C 381.312,122.328 377.145,121.661 372.5,123.5C 371.596,122.791 371.263,121.791 371.5,120.5C 383.306,111.872 394.472,112.539 405,122.5C 406.891,126.611 407.891,130.944 408,135.5C 408.5,150.496 408.667,165.496 408.5,180.5 Z"/></g>
<g><path style="opacity:1" fill="#141414" d="M 449.5,75.5 C 449.167,92.18 449.501,108.847 450.5,125.5C 451.107,125.376 451.44,125.043 451.5,124.5C 458.71,115.342 468.044,112.509 479.5,116C 485.94,118.773 489.774,123.606 491,130.5C 491.333,146.833 491.667,163.167 492,179.5C 492.5,180.667 493.333,181.5 494.5,182C 497.043,182.14 499.377,182.806 501.5,184C 496.671,185.144 491.671,185.644 486.5,185.5C 478.196,185.246 470.03,184.912 462,184.5C 461.833,184.167 461.667,183.833 461.5,183.5C 463.766,182.686 466.1,182.186 468.5,182C 469.167,181.333 469.833,180.667 470.5,180C 470.136,172.04 470.136,163.874 470.5,155.5C 470.565,145.463 470.065,135.463 469,125.5C 462.115,119.592 456.448,120.592 452,128.5C 451.5,146.164 451.333,163.83 451.5,181.5C 454.392,181.721 457.059,182.554 459.5,184C 458.234,184.309 457.067,184.809 456,185.5C 443.802,184.888 431.636,184.888 419.5,185.5C 419.5,184.5 419.5,183.5 419.5,182.5C 422.777,182.784 425.943,182.451 429,181.5C 429.667,149.167 429.667,116.833 429,84.5C 425.949,82.981 422.782,81.981 419.5,81.5C 419.833,80.8333 420.167,80.1667 420.5,79.5C 426.095,78.5963 431.761,77.9296 437.5,77.5C 440.495,77.7062 443.162,77.0395 445.5,75.5C 446.833,74.1667 448.167,74.1667 449.5,75.5 Z"/></g>
<g><path style="opacity:0.999" fill="#131313" d="M 536.5,186.5 C 534.095,185.232 531.428,184.565 528.5,184.5C 524.756,184.072 521.756,182.405 519.5,179.5C 519.027,178.094 518.027,177.427 516.5,177.5C 503.821,165.32 500.987,150.987 508,134.5C 518.804,117.453 533.97,111.619 553.5,117C 576.519,129.561 582.353,147.728 571,171.5C 562.304,182.931 550.804,187.931 536.5,186.5 Z M 552.5,162.5 C 551.437,166.639 550.77,170.972 550.5,175.5C 547.169,183.961 541.669,185.628 534,180.5C 531.248,175.162 529.582,169.495 529,163.5C 527.927,151.385 528.594,139.385 531,127.5C 534.256,117.638 539.923,115.638 548,121.5C 550.482,127.574 551.815,133.907 552,140.5C 552.5,147.826 552.666,155.159 552.5,162.5 Z"/></g>
<g><path style="opacity:0.999" fill="#151515" d="M 730.5,184.5 C 730.027,183.094 729.027,182.427 727.5,182.5C 726.186,180.263 725.02,177.929 724,175.5C 718.522,185 710.355,188.5 699.5,186C 689.697,178.962 687.864,170.129 694,159.5C 698.677,154.245 704.51,151.245 711.5,150.5C 714.428,150.435 717.095,149.768 719.5,148.5C 719.833,148.5 720.167,148.5 720.5,148.5C 721.833,148.5 723.167,148.5 724.5,148.5C 724.825,140.981 724.492,133.648 723.5,126.5C 722.232,122.233 719.565,119.233 715.5,117.5C 714.833,116.833 714.167,116.167 713.5,115.5C 714.274,114.853 715.274,114.52 716.5,114.5C 725.16,114.287 732.994,116.621 740,121.5C 742.479,125.123 743.812,129.123 744,133.5C 744.333,147.833 744.667,162.167 745,176.5C 745.408,178.41 746.575,179.41 748.5,179.5C 750.626,178.602 752.626,177.435 754.5,176C 755.635,175.251 756.635,175.417 757.5,176.5C 750.248,185.558 741.248,188.225 730.5,184.5 Z M 722.5,150.5 C 723.909,158.069 723.742,165.735 722,173.5C 720.309,177.213 717.475,178.379 713.5,177C 708.012,168.895 708.678,161.228 715.5,154C 717.925,152.787 720.259,151.621 722.5,150.5 Z"/></g>
<g><path style="opacity:1" fill="#121212" d="M 886.5,117.5 C 890.167,117.5 893.833,117.5 897.5,117.5C 897.17,134.342 897.503,151.008 898.5,167.5C 899.809,181.408 905.642,183.741 916,174.5C 917.624,157.233 917.958,139.9 917,122.5C 916.302,121.309 915.469,120.309 914.5,119.5C 912.833,118.833 911.167,118.167 909.5,117.5C 909.833,117.5 910.167,117.5 910.5,117.5C 920.015,117.173 929.348,117.506 938.5,118.5C 939.309,137.79 939.809,157.123 940,176.5C 943.8,177.199 947.633,177.865 951.5,178.5C 952.521,177.099 953.521,175.765 954.5,174.5C 955.906,174.027 956.573,173.027 956.5,171.5C 965.047,154.073 974.38,137.073 984.5,120.5C 977.489,119.448 970.822,120.615 964.5,124C 960.855,128.789 957.855,133.956 955.5,139.5C 955.167,138.333 954.833,137.167 954.5,136C 955.826,129.539 956.826,123.039 957.5,116.5C 974.513,116.167 991.513,116.501 1008.5,117.5C 997.059,138.723 985.392,159.723 973.5,180.5C 972.957,180.56 972.624,180.893 972.5,181.5C 977.986,182.815 983.32,182.815 988.5,181.5C 992.602,181.058 996.269,179.558 999.5,177C 1003.17,172.147 1006.17,166.981 1008.5,161.5C 1009.46,163.265 1009.79,165.265 1009.5,167.5C 1008.39,173.146 1007.39,178.812 1006.5,184.5C 1002.79,184.792 999.126,184.792 995.5,184.5C 980.129,185.15 965.129,184.484 950.5,182.5C 950.5,182.167 950.5,181.833 950.5,181.5C 949.119,180.768 946.952,180.435 944,180.5C 938.933,180.486 934.1,181.153 929.5,182.5C 926.14,183.623 922.807,184.957 919.5,186.5C 918.834,183.311 918.167,179.977 917.5,176.5C 916.893,176.624 916.56,176.957 916.5,177.5C 908.264,186.42 898.264,188.92 886.5,185C 881.572,183.073 878.406,179.573 877,174.5C 876.667,156.833 876.333,139.167 876,121.5C 873.393,120.877 870.893,120.21 868.5,119.5C 867.833,118.833 867.167,118.167 866.5,117.5C 873.012,116.368 879.679,116.368 886.5,117.5 Z"/></g>
<g><path style="opacity:0.441" fill="#969696" d="M 910.5,117.5 C 920.008,116.177 929.675,116.177 939.5,117.5C 939.376,118.107 939.043,118.44 938.5,118.5C 929.348,117.506 920.015,117.173 910.5,117.5 Z"/></g>
<g><path style="opacity:1" fill="#1b1b1b" d="M 116.5,116.5 C 117.239,116.369 117.906,116.536 118.5,117C 117.584,117.278 116.918,117.778 116.5,118.5C 114.5,119.833 112.833,121.5 111.5,123.5C 110.876,123.917 110.543,124.584 110.5,125.5C 110.747,126.713 111.414,127.38 112.5,127.5C 119.788,128.456 121.954,132.456 119,139.5C 118.167,140.333 117.333,141.167 116.5,142C 107.798,144.655 102.464,141.655 100.5,133C 102.006,123.754 107.339,118.254 116.5,116.5 Z"/></g>
<g><path style="opacity:1" fill="#4d4d4d" d="M 713.5,115.5 C 714.167,116.167 714.833,116.833 715.5,117.5C 711.681,117.414 708.015,118.081 704.5,119.5C 703.791,118.596 702.791,118.263 701.5,118.5C 705.018,116.034 709.018,115.034 713.5,115.5 Z"/></g>
<g><path style="opacity:1" fill="#181818" d="M 701.5,118.5 C 702.791,118.263 703.791,118.596 704.5,119.5C 702.15,121.66 701.483,124.16 702.5,127C 709.022,127.528 711.522,131.028 710,137.5C 709.215,139.286 708.049,140.786 706.5,142C 692.735,143.22 688.569,137.387 694,124.5C 696.086,121.906 698.586,119.906 701.5,118.5 Z"/></g>
<g><path style="opacity:0.753" fill="#727272" d="M 866.5,117.5 C 867.167,118.167 867.833,118.833 868.5,119.5C 867.325,119.719 866.325,119.386 865.5,118.5C 865.624,117.893 865.957,117.56 866.5,117.5 Z"/></g>
<g><path style="opacity:0.742" fill="#505050" d="M 909.5,117.5 C 911.167,118.167 912.833,118.833 914.5,119.5C 911.753,119.813 909.086,119.48 906.5,118.5C 907.242,117.713 908.075,117.047 909,116.5C 909.399,116.728 909.565,117.062 909.5,117.5 Z"/></g>
<g><path style="opacity:0.455" fill="#838383" d="M 305.5,118.5 C 300.766,120.145 295.766,120.811 290.5,120.5C 295.306,119.407 300.306,118.741 305.5,118.5 Z"/></g>
<g><path style="opacity:0.494" fill="#878787" d="M 363.5,115.5 C 364.568,114.566 365.901,114.232 367.5,114.5C 367.19,117.713 367.523,120.713 368.5,123.5C 368.167,124.167 367.833,124.833 367.5,125.5C 366.521,122.375 366.187,119.042 366.5,115.5C 365.5,115.5 364.5,115.5 363.5,115.5 Z"/></g>
<g><path style="opacity:0.579" fill="#848484" d="M 886.5,117.5 C 890.298,116.517 894.298,116.183 898.5,116.5C 898.5,133.5 898.5,150.5 898.5,167.5C 897.503,151.008 897.17,134.342 897.5,117.5C 893.833,117.5 890.167,117.5 886.5,117.5 Z"/></g>
<g><path style="opacity:0.941" fill="#707070" d="M 130.5,121.5 C 132.048,121.821 132.715,122.821 132.5,124.5C 131.599,123.71 130.932,122.71 130.5,121.5 Z"/></g>
<g><path style="opacity:0.941" fill="#6b6b6b" d="M 349.5,120.5 C 349.082,121.222 348.416,121.722 347.5,122C 344.854,122.497 342.187,122.664 339.5,122.5C 342.656,121.566 345.989,120.899 349.5,120.5 Z"/></g>
<g><path style="opacity:0.753" fill="#727272" d="M 621.5,120.5 C 621.027,121.906 620.027,122.573 618.5,122.5C 618.973,121.094 619.973,120.427 621.5,120.5 Z"/></g>
<g><path style="opacity:1" fill="#474747" d="M 201.5,120.5 C 201.263,121.791 201.596,122.791 202.5,123.5C 201.167,124.833 199.833,126.167 198.5,127.5C 198.5,126.833 198.5,126.167 198.5,125.5C 198.5,125.167 198.5,124.833 198.5,124.5C 198.738,122.596 199.738,121.262 201.5,120.5 Z"/></g>
<g><path style="opacity:1" fill="#454545" d="M 371.5,120.5 C 371.263,121.791 371.596,122.791 372.5,123.5C 370.833,124.5 369.5,125.833 368.5,127.5C 368.672,126.508 368.338,125.842 367.5,125.5C 367.833,124.833 368.167,124.167 368.5,123.5C 369.167,122.167 370.167,121.167 371.5,120.5 Z"/></g>
<g><path style="opacity:0.702" fill="#7f7f7f" d="M 652.5,123.5 C 654.048,123.821 654.715,124.821 654.5,126.5C 653.599,125.71 652.932,124.71 652.5,123.5 Z"/></g>
<g><path style="opacity:0.553" fill="#787878" d="M 149.5,122.5 C 150.906,122.973 151.573,123.973 151.5,125.5C 150.094,125.027 149.427,124.027 149.5,122.5 Z"/></g>
<g><path style="opacity:0.141" fill="#b0b0b0" d="M 111.5,123.5 C 111.433,124.959 111.766,126.292 112.5,127.5C 111.414,127.38 110.747,126.713 110.5,125.5C 110.543,124.584 110.876,123.917 111.5,123.5 Z"/></g>
<g><path style="opacity:0.105" fill="#afafaf" d="M 344.5,125.5 C 346.308,126.918 346.975,128.918 346.5,131.5C 345.715,129.626 345.048,127.626 344.5,125.5 Z"/></g>
<g><path style="opacity:0.627" fill="#898989" d="M 254.5,124.5 C 255.931,124.881 256.764,125.881 257,127.5C 257.829,145.671 257.662,163.671 256.5,181.5C 256.667,163.83 256.5,146.164 256,128.5C 255.59,127.099 255.09,125.766 254.5,124.5 Z"/></g>
<g><path style="opacity:0.039" fill="#bababa" d="M 299.5,123.5 C 301.388,125.988 302.055,128.988 301.5,132.5C 300.755,129.61 300.088,126.61 299.5,123.5 Z"/></g>
<g><path style="opacity:0.514" fill="#7a7a7a" d="M 276.5,125.5 C 277.924,127.515 278.59,129.848 278.5,132.5C 277.076,130.485 276.41,128.152 276.5,125.5 Z"/></g>
<g><path style="opacity:0.027" fill="#d3d3d3" d="M 301.5,133.5 C 302.151,149.868 301.485,165.868 299.5,181.5C 300.153,165.402 300.819,149.402 301.5,133.5 Z"/></g>
<g><path style="opacity:0.671" fill="#454545" d="M 654.5,127.5 C 655.302,128.952 655.802,130.618 656,132.5C 656.826,144.341 656.659,156.007 655.5,167.5C 655.691,154.147 655.358,140.813 654.5,127.5 Z"/></g>
<g><path style="opacity:0.381" fill="#878787" d="M 216.5,129.5 C 217.166,138.16 217.5,146.994 217.5,156C 217.498,165.193 216.832,174.026 215.5,182.5C 216.486,164.91 216.819,147.243 216.5,129.5 Z"/></g>
<g><path style="opacity:0.874" fill="#2d2d2d" d="M 346.5,131.5 C 347.661,147.328 347.828,163.328 347,179.5C 346.722,180.416 346.222,181.082 345.5,181.5C 346.457,164.868 346.79,148.201 346.5,131.5 Z"/></g>
<g><path style="opacity:0.094" fill="#bababa" d="M 723.5,126.5 C 724.492,133.648 724.825,140.981 724.5,148.5C 723.167,148.5 721.833,148.5 720.5,148.5C 721.209,147.596 722.209,147.263 723.5,147.5C 723.5,140.5 723.5,133.5 723.5,126.5 Z"/></g>
<g><path style="opacity:1" fill="#535353" d="M 610.5,133.5 C 610.025,137.084 609.025,140.417 607.5,143.5C 607.32,139.714 608.32,136.381 610.5,133.5 Z"/></g>
<g><path style="opacity:0.49" fill="#717171" d="M 132.5,124.5 C 133.29,125.609 133.79,126.942 134,128.5C 134.5,135.158 134.666,141.825 134.5,148.5C 133.167,148.5 131.833,148.5 130.5,148.5C 131.209,147.596 132.209,147.263 133.5,147.5C 133.646,139.804 133.313,132.138 132.5,124.5 Z"/></g>
<g><path style="opacity:0.772" fill="#505050" d="M 198.5,128.5 C 197.681,144.152 197.347,159.819 197.5,175.5C 196.339,161.006 196.172,146.339 197,131.5C 197.232,130.263 197.732,129.263 198.5,128.5 Z"/></g>
<g><path style="opacity:0.553" fill="#767676" d="M 87.5,148.5 C 87.1667,149.5 86.5,150.167 85.5,150.5C 85.369,149.761 85.5357,149.094 86,148.5C 86.69,147.262 87.19,147.262 87.5,148.5 Z"/></g>
<g><path style="opacity:0.371" fill="#6f6f6f" d="M 631.5,135.5 C 630.701,144.142 630.368,152.809 630.5,161.5C 629.835,158.183 629.501,154.683 629.5,151C 629.326,145.579 629.993,140.413 631.5,135.5 Z"/></g>
<g><path style="opacity:0.827" fill="#626262" d="M 719.5,148.5 C 717.095,149.768 714.428,150.435 711.5,150.5C 713.838,148.96 716.505,148.294 719.5,148.5 Z"/></g>
<g><path style="opacity:0.867" fill="#676767" d="M 29.5,151.5 C 30.7682,153.905 31.4349,156.572 31.5,159.5C 29.9605,157.162 29.2938,154.495 29.5,151.5 Z"/></g>
<g><path style="opacity:0.867" fill="#767676" d="M 861.5,157.5 C 861.829,160.228 861.163,162.562 859.5,164.5C 859.721,161.933 860.388,159.599 861.5,157.5 Z"/></g>
<g><path style="opacity:0.792" fill="#7b7b7b" d="M 1008.5,161.5 C 1008.56,160.957 1008.89,160.624 1009.5,160.5C 1010.8,162.973 1010.8,165.307 1009.5,167.5C 1009.79,165.265 1009.46,163.265 1008.5,161.5 Z"/></g>
<g><path style="opacity:0.761" fill="#6e6e6e" d="M 552.5,162.5 C 552.844,167.122 552.177,171.455 550.5,175.5C 550.77,170.972 551.437,166.639 552.5,162.5 Z"/></g>
<g><path style="opacity:0.608" fill="#717171" d="M 956.5,171.5 C 956.573,173.027 955.906,174.027 954.5,174.5C 954.427,172.973 955.094,171.973 956.5,171.5 Z"/></g>
<g><path style="opacity:0.686" fill="#7d7d7d" d="M 133.5,175.5 C 133.56,174.957 133.893,174.624 134.5,174.5C 135.429,175.689 135.762,177.022 135.5,178.5C 134.833,177.5 134.167,176.5 133.5,175.5 Z"/></g>
<g><path style="opacity:0.805" fill="#585858" d="M 87.5,171.5 C 87.3203,175.215 87.6536,178.882 88.5,182.5C 88.2811,183.938 87.7811,185.271 87,186.5C 86.2828,185.956 85.7828,185.289 85.5,184.5C 86.1667,180.167 86.8333,175.833 87.5,171.5 Z"/></g>
<g><path style="opacity:0.827" fill="#707070" d="M 516.5,177.5 C 518.027,177.427 519.027,178.094 519.5,179.5C 517.973,179.573 516.973,178.906 516.5,177.5 Z"/></g>
<g><path style="opacity:0.463" fill="#757575" d="M 654.5,175.5 C 654.573,177.027 653.906,178.027 652.5,178.5C 652.427,176.973 653.094,175.973 654.5,175.5 Z"/></g>
<g><path style="opacity:0.776" fill="#676767" d="M 950.5,181.5 C 943.485,181.578 936.485,181.911 929.5,182.5C 934.1,181.153 938.933,180.486 944,180.5C 946.952,180.435 949.119,180.768 950.5,181.5 Z"/></g>
<g><path style="opacity:0.214" fill="#a5a5a5" d="M 408.5,180.5 C 411.28,181.078 413.947,181.745 416.5,182.5C 413.302,183.036 410.635,182.369 408.5,180.5 Z"/></g>
<g><path style="opacity:0.2" fill="#9a9a9a" d="M 973.5,180.5 C 978.305,181.487 983.305,181.821 988.5,181.5C 983.32,182.815 977.986,182.815 972.5,181.5C 972.624,180.893 972.957,180.56 973.5,180.5 Z"/></g>
<g><path style="opacity:0.992" fill="#4c4c4c" d="M 238.5,181.5 C 240.952,182.065 243.285,182.732 245.5,183.5C 242.612,184.01 240.279,183.344 238.5,181.5 Z"/></g>
<g><path style="opacity:0.804" fill="#4b4b4b" d="M 648.5,181.5 C 647.688,182.993 646.355,183.66 644.5,183.5C 643.274,183.48 642.274,183.147 641.5,182.5C 643.903,182.552 646.236,182.219 648.5,181.5 Z"/></g>
<g><path style="opacity:0.125" fill="#bdbdbd" d="M 653.5,181.5 C 653.56,180.957 653.893,180.624 654.5,180.5C 655.429,181.689 655.762,183.022 655.5,184.5C 654.833,183.5 654.167,182.5 653.5,181.5 Z"/></g>
<g><path style="opacity:0.514" fill="#808080" d="M 727.5,182.5 C 729.027,182.427 730.027,183.094 730.5,184.5C 728.973,184.573 727.973,183.906 727.5,182.5 Z"/></g>
<g><path style="opacity:0.747" fill="#707070" d="M 916.5,177.5 C 916.56,176.957 916.893,176.624 917.5,176.5C 918.167,179.977 918.834,183.311 919.5,186.5C 919.44,187.043 919.107,187.376 918.5,187.5C 917.833,184.023 917.166,180.689 916.5,177.5 Z"/></g>
<g><path style="opacity:0.361" fill="#a0a0a0" d="M 337.5,182.5 C 337.389,183.117 337.056,183.617 336.5,184C 343.158,184.5 349.825,184.666 356.5,184.5C 349.687,185.491 342.687,185.825 335.5,185.5C 335.285,183.821 335.952,182.821 337.5,182.5 Z"/></g>
<g><path style="opacity:0.859" fill="#676767" d="M 528.5,184.5 C 531.428,184.565 534.095,185.232 536.5,186.5C 533.505,186.706 530.838,186.04 528.5,184.5 Z"/></g>
<g><path style="opacity:0.153" fill="#b4b4b4" d="M 950.5,182.5 C 965.129,184.484 980.129,185.15 995.5,184.5C 980.342,185.496 965.009,185.83 949.5,185.5C 949.263,184.209 949.596,183.209 950.5,182.5 Z"/></g>
<g><path style="opacity:1" fill="#333333" d="M 100.5,206.5 C 105.668,207.339 106.668,209.839 103.5,214C 100.186,215.165 98.1861,213.998 97.5,210.5C 98.1716,208.84 99.1716,207.507 100.5,206.5 Z"/></g>
<g><path style="opacity:1" fill="#1f1f1f" d="M 156.5,241.5 C 155.167,242.167 153.833,242.833 152.5,243.5C 152.167,243.5 151.833,243.5 151.5,243.5C 149.965,242.646 148.632,242.646 147.5,243.5C 147.167,243.5 146.833,243.5 146.5,243.5C 146.5,243.167 146.5,242.833 146.5,242.5C 146.783,241.711 147.283,241.044 148,240.5C 148.499,234.843 148.666,229.176 148.5,223.5C 149.445,218.595 149.779,213.595 149.5,208.5C 150.791,208.737 151.791,208.404 152.5,207.5C 153.688,206.316 154.855,206.316 156,207.5C 156.5,218.828 156.667,230.162 156.5,241.5 Z"/></g>
<g><path style="opacity:1" fill="#101010" d="M 202.5,207.5 C 202.833,207.5 203.167,207.5 203.5,207.5C 205.159,218.63 206.159,229.963 206.5,241.5C 205.167,242.167 203.833,242.833 202.5,243.5C 202.167,243.5 201.833,243.5 201.5,243.5C 199.973,243.573 198.973,242.906 198.5,241.5C 198.5,235.5 198.5,229.5 198.5,223.5C 199.445,218.595 199.779,213.595 199.5,208.5C 200.791,208.737 201.791,208.404 202.5,207.5 Z"/></g>
<g><path style="opacity:1" fill="#1c1c1c" d="M 267.5,207.5 C 267.795,209.735 267.461,211.735 266.5,213.5C 265.461,211.469 263.795,210.136 261.5,209.5C 258.375,208.521 255.042,208.187 251.5,208.5C 251.179,213.695 251.513,218.695 252.5,223.5C 252.5,224.167 252.5,224.833 252.5,225.5C 252.5,230.833 252.5,236.167 252.5,241.5C 256.514,241.666 260.514,241.499 264.5,241C 266.487,238.86 267.82,236.36 268.5,233.5C 269.489,237.107 269.823,240.774 269.5,244.5C 261.5,244.167 253.5,243.833 245.5,243.5C 243.585,243.784 241.919,243.451 240.5,242.5C 241.167,242.5 241.833,242.5 242.5,242.5C 244.472,233.56 245.139,224.227 244.5,214.5C 243.699,212.958 243.366,211.292 243.5,209.5C 241.897,209.688 240.563,209.188 239.5,208C 248.827,207.5 258.161,207.334 267.5,207.5 Z"/></g>
<g><path style="opacity:1" fill="#2a2a2a" d="M 358.5,206.5 C 362.979,206.898 364.312,209.231 362.5,213.5C 358.951,215.131 356.951,213.964 356.5,210C 356.862,208.566 357.528,207.399 358.5,206.5 Z"/></g>
<g><path style="opacity:1" fill="#242424" d="M 37.5,207.5 C 37.1583,208.338 36.4916,208.672 35.5,208.5C 27.2218,209.542 25.8885,213.042 31.5,219C 36.2144,221.051 40.3811,223.885 44,227.5C 47.5494,235.366 45.3827,240.699 37.5,243.5C 36.5084,243.672 35.8417,243.338 35.5,242.5C 38.1438,240.484 38.9772,237.817 38,234.5C 32.8051,231.903 28.1384,228.57 24,224.5C 19.5067,214.488 22.6734,208.488 33.5,206.5C 34.9245,206.623 36.2579,206.957 37.5,207.5 Z"/></g>
<g><path style="opacity:0.039" fill="#cbcbcb" d="M 326.5,209.5 C 328.364,208.207 330.364,208.207 332.5,209.5C 332.376,210.107 332.043,210.44 331.5,210.5C 330.081,209.549 328.415,209.216 326.5,209.5 Z"/></g>
<g><path style="opacity:0.72" fill="#505050" d="M 35.5,208.5 C 36.4916,208.672 37.1583,208.338 37.5,207.5C 39.5062,208.166 41.3395,208.166 43,207.5C 42.5444,210.589 42.3778,213.589 42.5,216.5C 40.6203,213.386 38.287,210.72 35.5,208.5 Z"/></g>
<g><path style="opacity:1" fill="#363636" d="M 326.5,209.5 C 328.415,209.216 330.081,209.549 331.5,210.5C 329.166,213.666 326.333,216.333 323,218.5C 322.333,217.5 322.333,216.5 323,215.5C 323.716,213.121 324.883,211.121 326.5,209.5 Z"/></g>
<g><path style="opacity:0.659" fill="#686868" d="M 261.5,209.5 C 258.5,209.5 255.5,209.5 252.5,209.5C 252.5,214.167 252.5,218.833 252.5,223.5C 251.513,218.695 251.179,213.695 251.5,208.5C 255.042,208.187 258.375,208.521 261.5,209.5 Z"/></g>
<g><path style="opacity:0.639" fill="#747474" d="M 267.5,207.5 C 268.641,210.64 268.808,213.973 268,217.5C 266.812,216.437 266.312,215.103 266.5,213.5C 267.461,211.735 267.795,209.735 267.5,207.5 Z"/></g>
<g><path style="opacity:0.539" fill="#757575" d="M 203.5,207.5 C 204.209,206.596 205.209,206.263 206.5,206.5C 206.5,218.167 206.5,229.833 206.5,241.5C 206.159,229.963 205.159,218.63 203.5,207.5 Z"/></g>
<g><path style="opacity:0.019" fill="#d3d3d3" d="M 244.5,214.5 C 245.139,224.227 244.472,233.56 242.5,242.5C 243.142,233.068 243.809,223.734 244.5,214.5 Z"/></g>
<g><path style="opacity:1" fill="#262626" d="M 378.5,220.5 C 378.5,221.167 378.5,221.833 378.5,222.5C 378.249,228.892 378.582,235.225 379.5,241.5C 380.5,242.167 381.5,242.833 382.5,243.5C 378.641,245.059 374.974,244.725 371.5,242.5C 370.538,235.892 370.205,229.226 370.5,222.5C 370.5,221.833 370.5,221.167 370.5,220.5C 373.382,219.303 375.549,217.303 377,214.5C 378.319,216.25 378.819,218.25 378.5,220.5 Z"/></g>
<g><path style="opacity:0.376" fill="#777777" d="M 152.5,207.5 C 151.791,208.404 150.791,208.737 149.5,208.5C 149.779,213.595 149.445,218.595 148.5,223.5C 146.958,222.699 145.292,222.366 143.5,222.5C 144.5,221.833 145.5,221.167 146.5,220.5C 147.117,220.611 147.617,220.944 148,221.5C 148.667,217.833 148.667,214.167 148,210.5C 146.933,209.809 145.766,209.309 144.5,209C 147.063,207.921 149.729,207.421 152.5,207.5 Z"/></g>
<g><path style="opacity:0.272" fill="#868686" d="M 202.5,207.5 C 201.791,208.404 200.791,208.737 199.5,208.5C 199.779,213.595 199.445,218.595 198.5,223.5C 197.292,222.766 195.959,222.433 194.5,222.5C 195.167,221.833 195.833,221.167 196.5,220.5C 197.117,220.611 197.617,220.944 198,221.5C 198.667,217.833 198.667,214.167 198,210.5C 196.933,209.809 195.766,209.309 194.5,209C 197.063,207.921 199.729,207.421 202.5,207.5 Z"/></g>
<g><path style="opacity:0.443" fill="#666666" d="M 64.5,221.5 C 63.1667,221.5 62.5,222.167 62.5,223.5C 61.3951,222.4 60.0618,221.733 58.5,221.5C 58.5,221.167 58.5,220.833 58.5,220.5C 58.56,219.957 58.8933,219.624 59.5,219.5C 61.3361,220.028 63.0028,220.694 64.5,221.5 Z"/></g>
<g><path style="opacity:0.667" fill="#6c6c6c" d="M 90.5,221.5 C 89.5084,221.328 88.8417,221.662 88.5,222.5C 86.6017,221.266 84.935,221.599 83.5,223.5C 83.5,222.167 82.8333,221.5 81.5,221.5C 84.5,218.833 87.5,218.833 90.5,221.5 Z"/></g>
<g><path style="opacity:1" fill="#222222" d="M 105.5,241.5 C 105.672,242.492 105.338,243.158 104.5,243.5C 101.962,243.507 99.4621,243.841 97,244.5C 93.8456,243.566 94.0123,242.899 97.5,242.5C 97.5,236.167 97.5,229.833 97.5,223.5C 99.6287,222.797 101.629,221.797 103.5,220.5C 104.117,220.389 104.617,220.056 105,219.5C 105.5,226.826 105.666,234.159 105.5,241.5 Z"/></g>
<g><path style="opacity:0.584" fill="#6a6a6a" d="M 126.5,221.5 C 125.209,221.263 124.209,221.596 123.5,222.5C 122.167,221.167 120.833,221.167 119.5,222.5C 118.791,221.596 117.791,221.263 116.5,221.5C 117.997,220.694 119.664,220.028 121.5,219.5C 123.336,220.028 125.003,220.694 126.5,221.5 Z"/></g>
<g><path style="opacity:1" fill="#252525" d="M 146.5,220.5 C 145.5,221.167 144.5,221.833 143.5,222.5C 140.833,229.167 140.833,235.833 143.5,242.5C 142.432,243.434 141.099,243.768 139.5,243.5C 137.284,242.797 135.451,241.464 134,239.5C 129.961,228.91 133.294,222.243 144,219.5C 144.671,220.252 145.504,220.586 146.5,220.5 Z"/></g>
<g><path style="opacity:0.592" fill="#8f8f8f" d="M 171.5,220.5 C 170.508,220.328 169.842,220.662 169.5,221.5C 167.027,221.088 165.694,222.088 165.5,224.5C 164.778,223.449 163.778,222.782 162.5,222.5C 165.252,220.126 168.252,219.459 171.5,220.5 Z"/></g>
<g><path style="opacity:0.999" fill="#242424" d="M 171.5,220.5 C 174.325,220.081 176.491,221.081 178,223.5C 179.032,229.451 179.865,235.451 180.5,241.5C 181.451,240.674 182.451,240.508 183.5,241C 180.818,244.115 177.484,245.115 173.5,244C 172.748,243.329 172.414,242.496 172.5,241.5C 172.167,240.833 171.833,240.167 171.5,239.5C 172.833,234.167 172.833,228.833 171.5,223.5C 170.5,223.167 169.833,222.5 169.5,221.5C 169.842,220.662 170.508,220.328 171.5,220.5 Z"/></g>
<g><path style="opacity:0.827" fill="#636363" d="M 226.5,221.5 C 225.209,221.263 224.209,221.596 223.5,222.5C 222.167,221.167 220.833,221.167 219.5,222.5C 218.368,221.646 217.035,221.646 215.5,222.5C 218.952,219.258 222.619,218.925 226.5,221.5 Z"/></g>
<g><path style="opacity:0.827" fill="#555555" d="M 276.5,222.5 C 276.5,221.833 276.167,221.5 275.5,221.5C 276.641,220.661 277.974,219.994 279.5,219.5C 281.5,220.833 283.5,220.833 285.5,219.5C 286.652,222.106 286.818,224.773 286,227.5C 284.275,222.781 281.109,221.115 276.5,222.5 Z"/></g>
<g><path style="opacity:0.996" fill="#232323" d="M 312.5,223.5 C 312.427,225.027 313.094,226.027 314.5,226.5C 315.854,230.842 315.688,235.176 314,239.5C 312.549,241.464 310.716,242.797 308.5,243.5C 306.821,243.715 305.821,243.048 305.5,241.5C 308.298,234.982 307.965,228.648 304.5,222.5C 303.833,221.833 303.167,221.167 302.5,220.5C 306.403,219.466 309.736,220.466 312.5,223.5 Z"/></g>
<g><path style="opacity:1" fill="#222222" d="M 331.5,242.5 C 330.081,243.451 328.415,243.784 326.5,243.5C 325.167,243.5 323.833,243.5 322.5,243.5C 320.901,243.768 319.568,243.434 318.5,242.5C 320.456,236.588 321.123,230.255 320.5,223.5C 321.5,222.833 322.5,222.167 323.5,221.5C 324.531,220.751 325.698,220.085 327,219.5C 327.333,219.833 327.667,220.167 328,220.5C 328.5,227.826 328.666,235.159 328.5,242.5C 329.5,242.5 330.5,242.5 331.5,242.5 Z"/></g>
<g><path style="opacity:1" fill="#272727" d="M 351.5,222.5 C 351.5,223.833 351.5,225.167 351.5,226.5C 350.252,228.69 348.586,229.023 346.5,227.5C 346.741,225.114 346.075,223.114 344.5,221.5C 347.095,218.933 349.428,219.266 351.5,222.5 Z"/></g>
<g><path style="opacity:0.694" fill="#717171" d="M 395.5,220.5 C 394.833,220.5 394.5,220.833 394.5,221.5C 391.966,221.259 390.3,222.259 389.5,224.5C 388.833,223.833 388.167,223.167 387.5,222.5C 389.954,220.337 392.62,219.67 395.5,220.5 Z"/></g>
<g><path style="opacity:0.996" fill="#272727" d="M 58.5,220.5 C 58.5,220.833 58.5,221.167 58.5,221.5C 54.9356,228.26 54.6023,235.26 57.5,242.5C 57.1583,243.338 56.4916,243.672 55.5,243.5C 47.9764,240.744 45.4764,235.411 48,227.5C 50.0561,222.935 53.5561,220.602 58.5,220.5 Z"/></g>
<g><path style="opacity:0.999" fill="#1f1f1f" d="M 64.5,221.5 C 69.5876,223.329 71.921,226.995 71.5,232.5C 71.8449,238.473 69.1783,242.14 63.5,243.5C 62.5084,243.672 61.8417,243.338 61.5,242.5C 63.7511,236.305 64.0844,229.972 62.5,223.5C 62.5,222.167 63.1667,221.5 64.5,221.5 Z"/></g>
<g><path style="opacity:1" fill="#212121" d="M 81.5,221.5 C 82.8333,221.5 83.5,222.167 83.5,223.5C 82.4498,228.114 82.2832,232.78 83,237.5C 83.66,239.324 84.8267,240.657 86.5,241.5C 87.5,242.167 88.5,242.833 89.5,243.5C 86.6038,244.775 83.6038,244.775 80.5,243.5C 80.0269,242.094 79.0269,241.427 77.5,241.5C 73.835,237.961 72.6683,233.628 74,228.5C 74.2784,227.584 74.7784,226.918 75.5,226.5C 76.9063,226.027 77.573,225.027 77.5,223.5C 78.5137,222.326 79.847,221.66 81.5,221.5 Z"/></g>
<g><path style="opacity:1" fill="#393939" d="M 90.5,221.5 C 94.5433,223.127 95.21,225.627 92.5,229C 87.7879,229.09 86.4545,226.924 88.5,222.5C 88.8417,221.662 89.5084,221.328 90.5,221.5 Z"/></g>
<g><path style="opacity:0.533" fill="#717171" d="M 103.5,220.5 C 101.629,221.797 99.6287,222.797 97.5,223.5C 96.325,223.719 95.325,223.386 94.5,222.5C 97.4377,221.511 100.438,220.844 103.5,220.5 Z"/></g>
<g><path style="opacity:0.998" fill="#202020" d="M 116.5,221.5 C 117.791,221.263 118.791,221.596 119.5,222.5C 119.567,223.959 119.234,225.292 118.5,226.5C 117.167,229.833 117.167,233.167 118.5,236.5C 119.124,238.754 120.457,240.421 122.5,241.5C 123.833,242.167 125.167,242.833 126.5,243.5C 114.214,246.049 108.714,241.049 110,228.5C 110.989,225.013 113.155,222.68 116.5,221.5 Z"/></g>
<g><path style="opacity:0.992" fill="#212121" d="M 126.5,221.5 C 128.997,222.129 130.33,223.796 130.5,226.5C 130.03,227.693 129.03,228.36 127.5,228.5C 126.274,228.48 125.274,228.147 124.5,227.5C 123.699,225.958 123.366,224.292 123.5,222.5C 124.209,221.596 125.209,221.263 126.5,221.5 Z"/></g>
<g><path style="opacity:1" fill="#222222" d="M 196.5,220.5 C 195.833,221.167 195.167,221.833 194.5,222.5C 193.034,223.347 192.2,224.68 192,226.5C 191.071,232.02 191.571,237.353 193.5,242.5C 192.432,243.434 191.099,243.768 189.5,243.5C 185.743,242.233 183.576,239.566 183,235.5C 181.909,225.102 186.409,220.102 196.5,220.5 Z"/></g>
<g><path style="opacity:1" fill="#222222" d="M 219.5,222.5 C 219.634,224.292 219.301,225.958 218.5,227.5C 218.5,228.167 218.5,228.833 218.5,229.5C 218.337,231.857 218.503,234.19 219,236.5C 219.223,238.881 220.39,240.547 222.5,241.5C 223.833,242.167 225.167,242.833 226.5,243.5C 215.162,245.745 209.662,241.078 210,229.5C 210.432,225.928 212.265,223.595 215.5,222.5C 217.035,221.646 218.368,221.646 219.5,222.5 Z"/></g>
<g><path style="opacity:0.998" fill="#202020" d="M 226.5,221.5 C 227.492,221.328 228.158,221.662 228.5,222.5C 228.427,224.027 229.094,225.027 230.5,225.5C 230.5,226.5 230.5,227.5 230.5,228.5C 228.265,228.795 226.265,228.461 224.5,227.5C 223.699,225.958 223.366,224.292 223.5,222.5C 224.209,221.596 225.209,221.263 226.5,221.5 Z"/></g>
<g><path style="opacity:0.997" fill="#1e1e1e" d="M 295.5,221.5 C 297.404,221.738 298.738,222.738 299.5,224.5C 299.5,229.833 299.5,235.167 299.5,240.5C 298.206,244.934 298.206,249.267 299.5,253.5C 301.076,254.143 302.41,255.143 303.5,256.5C 298.5,256.5 293.5,256.5 288.5,256.5C 289.209,255.596 290.209,255.263 291.5,255.5C 291.5,244.833 291.5,234.167 291.5,223.5C 292.833,222.833 294.167,222.167 295.5,221.5 Z"/></g>
<g><path style="opacity:0.318" fill="#676767" d="M 295.5,221.5 C 297.771,220.971 300.104,220.638 302.5,220.5C 303.167,221.167 303.833,221.833 304.5,222.5C 302.486,222.392 300.82,223.058 299.5,224.5C 298.738,222.738 297.404,221.738 295.5,221.5 Z"/></g>
<g><path style="opacity:0.267" fill="#989898" d="M 337.5,221.5 C 336.167,222.167 334.833,222.833 333.5,223.5C 332.624,223.631 331.957,223.298 331.5,222.5C 333.396,221.534 335.396,221.201 337.5,221.5 Z"/></g>
<g><path style="opacity:1" fill="#1d1d1d" d="M 342.5,220.5 C 342.366,222.292 342.699,223.958 343.5,225.5C 343.5,231.167 343.5,236.833 343.5,242.5C 345.548,242.16 346.548,242.493 346.5,243.5C 342.629,243.815 338.962,243.482 335.5,242.5C 335.666,236.491 335.499,230.491 335,224.5C 334.617,223.944 334.117,223.611 333.5,223.5C 334.833,222.833 336.167,222.167 337.5,221.5C 339.117,220.962 340.784,220.629 342.5,220.5 Z"/></g>
<g><path style="opacity:0.553" fill="#878787" d="M 358.5,221.5 C 357.449,222.222 356.782,223.222 356.5,224.5C 355.292,223.766 353.959,223.433 352.5,223.5C 352.737,224.791 352.404,225.791 351.5,226.5C 351.5,225.167 351.5,223.833 351.5,222.5C 353.717,221.631 356.05,221.298 358.5,221.5 Z"/></g>
<g><path style="opacity:1" fill="#1f1f1f" d="M 357.5,243.5 C 356.662,243.158 356.328,242.492 356.5,241.5C 356.5,235.833 356.5,230.167 356.5,224.5C 356.782,223.222 357.449,222.222 358.5,221.5C 359.878,220.766 361.378,220.099 363,219.5C 364.356,227.095 364.856,234.762 364.5,242.5C 367.988,242.899 368.154,243.566 365,244.5C 362.538,243.841 360.038,243.507 357.5,243.5 Z"/></g>
<g><path style="opacity:0.58" fill="#717171" d="M 370.5,220.5 C 370.5,221.167 370.5,221.833 370.5,222.5C 366.5,221.833 366.5,221.167 370.5,220.5 Z"/></g>
<g><path style="opacity:0.525" fill="#7c7c7c" d="M 378.5,220.5 C 386.5,221.167 386.5,221.833 378.5,222.5C 378.5,221.833 378.5,221.167 378.5,220.5 Z"/></g>
<g><path style="opacity:0.998" fill="#1a1a1a" d="M 395.5,220.5 C 398.652,219.959 401.152,220.959 403,223.5C 403.499,229.157 403.666,234.824 403.5,240.5C 403.557,241.609 403.89,242.609 404.5,243.5C 402.712,244.622 400.712,244.789 398.5,244C 397.748,243.329 397.414,242.496 397.5,241.5C 397.167,240.833 396.833,240.167 396.5,239.5C 396.5,237.167 396.5,234.833 396.5,232.5C 396.5,231.833 396.5,231.167 396.5,230.5C 396.935,227.162 396.268,224.162 394.5,221.5C 394.5,220.833 394.833,220.5 395.5,220.5 Z"/></g>
<g><path style="opacity:0.808" fill="#666666" d="M 295.5,221.5 C 294.167,222.167 292.833,222.833 291.5,223.5C 290.127,223.657 288.793,223.49 287.5,223C 288,222.5 288.5,222 289,221.5C 290.956,221.784 293.123,221.784 295.5,221.5 Z"/></g>
<g><path style="opacity:0.306" fill="#8f8f8f" d="M 323.5,221.5 C 322.5,222.167 321.5,222.833 320.5,223.5C 319.022,223.762 317.689,223.429 316.5,222.5C 318.743,221.526 321.076,221.192 323.5,221.5 Z"/></g>
<g><path style="opacity:1" fill="#323232" d="M 387.5,222.5 C 388.167,223.167 388.833,223.833 389.5,224.5C 390.5,224.5 391.5,224.5 392.5,224.5C 392.56,229.975 390.394,231.309 386,228.5C 385.262,226.119 385.762,224.119 387.5,222.5 Z"/></g>
<g><path style="opacity:1" fill="#323232" d="M 162.5,222.5 C 163.778,222.782 164.778,223.449 165.5,224.5C 168.144,226.66 167.811,228.66 164.5,230.5C 160.055,228.718 159.388,226.052 162.5,222.5 Z"/></g>
<g><path style="opacity:1" fill="#272727" d="M 275.5,221.5 C 276.167,221.5 276.5,221.833 276.5,222.5C 276.238,223.978 276.571,225.311 277.5,226.5C 281.979,227.498 285.479,229.831 288,233.5C 288.667,235.833 288.667,238.167 288,240.5C 287.292,241.381 286.458,242.047 285.5,242.5C 284.833,240.833 284.167,239.167 283.5,237.5C 279.551,236.775 276.051,235.109 273,232.5C 270.592,228.034 271.425,224.367 275.5,221.5 Z"/></g>
<g><path style="opacity:0.553" fill="#909090" d="M 342.5,220.5 C 343.167,220.833 343.833,221.167 344.5,221.5C 346.075,223.114 346.741,225.114 346.5,227.5C 345.71,226.391 345.21,225.058 345,223.5C 344.722,224.416 344.222,225.082 343.5,225.5C 342.699,223.958 342.366,222.292 342.5,220.5 Z"/></g>
<g><path style="opacity:0.58" fill="#737373" d="M 228.5,222.5 C 229.906,222.973 230.573,223.973 230.5,225.5C 229.094,225.027 228.427,224.027 228.5,222.5 Z"/></g>
<g><path style="opacity:1" fill="#505050" d="M 252.5,225.5 C 252.5,224.833 252.5,224.167 252.5,223.5C 257.727,224.763 260.56,222.763 261,217.5C 261.667,216.167 262.333,216.167 263,217.5C 262.303,222.17 262.47,226.837 263.5,231.5C 262.675,232.386 261.675,232.719 260.5,232.5C 261,226.671 258.334,224.337 252.5,225.5 Z"/></g>
<g><path style="opacity:0.608" fill="#757575" d="M 77.5,223.5 C 77.573,225.027 76.9063,226.027 75.5,226.5C 75.427,224.973 76.0937,223.973 77.5,223.5 Z"/></g>
<g><path style="opacity:0.439" fill="#888888" d="M 312.5,223.5 C 313.906,223.973 314.573,224.973 314.5,226.5C 313.094,226.027 312.427,225.027 312.5,223.5 Z"/></g>
<g><path style="opacity:0.603" fill="#797979" d="M 118.5,226.5 C 120.265,227.461 122.265,227.795 124.5,227.5C 125.274,228.147 126.274,228.48 127.5,228.5C 129.03,228.36 130.03,227.693 130.5,226.5C 131.404,227.209 131.737,228.209 131.5,229.5C 127.167,229.5 122.833,229.5 118.5,229.5C 118.5,231.833 118.5,234.167 118.5,236.5C 117.167,233.167 117.167,229.833 118.5,226.5 Z"/></g>
<g><path style="opacity:0.387" fill="#898989" d="M 230.5,225.5 C 231.434,226.568 231.768,227.901 231.5,229.5C 227.167,229.5 222.833,229.5 218.5,229.5C 218.5,228.833 218.5,228.167 218.5,227.5C 220.5,227.5 222.5,227.5 224.5,227.5C 226.265,228.461 228.265,228.795 230.5,228.5C 230.5,227.5 230.5,226.5 230.5,225.5 Z"/></g>
<g><path style="opacity:0.475" fill="#747474" d="M 396.5,230.5 C 396.5,231.167 396.5,231.833 396.5,232.5C 395.833,232.833 395.167,233.167 394.5,233.5C 393.791,232.596 392.791,232.263 391.5,232.5C 393.028,231.691 394.694,231.024 396.5,230.5 Z"/></g>
<g><path style="opacity:0.992" fill="#262626" d="M 166.5,232.5 C 167.791,232.263 168.791,232.596 169.5,233.5C 167.466,235.655 167.133,237.988 168.5,240.5C 169.167,241.167 169.833,241.833 170.5,242.5C 168.205,244.385 165.538,244.885 162.5,244C 159.048,238.381 160.381,234.547 166.5,232.5 Z"/></g>
<g><path style="opacity:0.353" fill="#6f6f6f" d="M 171.5,223.5 C 172.833,228.833 172.833,234.167 171.5,239.5C 171.663,237.143 171.497,234.81 171,232.5C 170.617,233.056 170.117,233.389 169.5,233.5C 168.791,232.596 167.791,232.263 166.5,232.5C 167.878,231.766 169.378,231.099 171,230.5C 171.497,228.19 171.663,225.857 171.5,223.5 Z"/></g>
<g><path style="opacity:0.99" fill="#242424" d="M 391.5,232.5 C 392.791,232.263 393.791,232.596 394.5,233.5C 393.883,233.611 393.383,233.944 393,234.5C 392.505,236.473 392.338,238.473 392.5,240.5C 393.5,241.167 394.5,241.833 395.5,242.5C 394.223,243.898 392.557,244.564 390.5,244.5C 388.645,244.66 387.312,243.993 386.5,242.5C 386.443,241.391 386.11,240.391 385.5,239.5C 385.362,235.307 387.362,232.973 391.5,232.5 Z"/></g>
<g><path style="opacity:0.336" fill="#888888" d="M 23.5,234.5 C 22.8333,236.833 22.1667,239.167 21.5,241.5C 21.1826,238.428 21.5159,235.428 22.5,232.5C 23.2975,232.957 23.6309,233.624 23.5,234.5 Z"/></g>
<g><path style="opacity:1" fill="#434343" d="M 23.5,234.5 C 25.1366,240.655 29.1366,243.322 35.5,242.5C 35.8417,243.338 36.5084,243.672 37.5,243.5C 33.1876,244.878 28.8543,244.545 24.5,242.5C 22.6329,245.229 21.6329,244.896 21.5,241.5C 22.1667,239.167 22.8333,236.833 23.5,234.5 Z"/></g>
<g><path style="opacity:1" fill="#232323" d="M 273.5,237.5 C 274.167,238.833 274.833,240.167 275.5,241.5C 274.833,242.167 274.167,242.833 273.5,243.5C 272.167,241.5 272.167,239.5 273.5,237.5 Z"/></g>
<g><path style="opacity:0.494" fill="#898989" d="M 171.5,239.5 C 171.833,240.167 172.167,240.833 172.5,241.5C 171.833,241.833 171.167,242.167 170.5,242.5C 169.833,241.833 169.167,241.167 168.5,240.5C 169.609,240.443 170.609,240.11 171.5,239.5 Z"/></g>
<g><path style="opacity:0.906" fill="#747474" d="M 385.5,239.5 C 386.11,240.391 386.443,241.391 386.5,242.5C 385.038,241.529 383.705,241.862 382.5,243.5C 381.5,242.833 380.5,242.167 379.5,241.5C 381.685,241.296 383.685,240.63 385.5,239.5 Z"/></g>
<g><path style="opacity:0.486" fill="#868686" d="M 396.5,239.5 C 396.833,240.167 397.167,240.833 397.5,241.5C 396.833,241.833 396.167,242.167 395.5,242.5C 394.5,241.833 393.5,241.167 392.5,240.5C 393.959,240.567 395.292,240.234 396.5,239.5 Z"/></g>
<g><path style="opacity:0.78" fill="#636363" d="M 89.5,243.5 C 88.5,242.833 87.5,242.167 86.5,241.5C 89.5011,241.238 92.1678,240.404 94.5,239C 93.61,241.391 91.9433,242.891 89.5,243.5 Z"/></g>
<g><path style="opacity:0.659" fill="#6d6d6d" d="M 126.5,243.5 C 125.167,242.833 123.833,242.167 122.5,241.5C 126.432,241.74 129.266,240.073 131,236.5C 131.032,239.668 129.532,242.001 126.5,243.5 Z"/></g>
<g><path style="opacity:0.675" fill="#666666" d="M 226.5,243.5 C 225.167,242.833 223.833,242.167 222.5,241.5C 226.683,242.154 229.516,240.488 231,236.5C 231.032,239.668 229.532,242.001 226.5,243.5 Z"/></g>
<g><path style="opacity:0.941" fill="#5c5c5c" d="M 403.5,240.5 C 405.106,241.359 406.773,241.526 408.5,241C 407.529,242.481 406.196,243.315 404.5,243.5C 403.89,242.609 403.557,241.609 403.5,240.5 Z"/></g>
<g><path style="opacity:0.494" fill="#878787" d="M 77.5,241.5 C 79.0269,241.427 80.0269,242.094 80.5,243.5C 78.9731,243.573 77.9731,242.906 77.5,241.5 Z"/></g>
<g><path style="opacity:0.439" fill="#939393" d="M 147.5,243.5 C 148.632,242.646 149.965,242.646 151.5,243.5C 150.295,244.686 148.961,244.686 147.5,243.5 Z"/></g>
<g><path style="opacity:0.467" fill="#898989" d="M 156.5,241.5 C 157.376,241.369 158.043,241.702 158.5,242.5C 156.604,243.466 154.604,243.799 152.5,243.5C 153.833,242.833 155.167,242.167 156.5,241.5 Z"/></g>
<g><path style="opacity:0.522" fill="#747474" d="M 198.5,241.5 C 198.973,242.906 199.973,243.573 201.5,243.5C 197.683,244.455 193.683,244.455 189.5,243.5C 191.099,243.768 192.432,243.434 193.5,242.5C 195.216,242.371 196.883,242.038 198.5,241.5 Z"/></g>
<g><path style="opacity:0.467" fill="#949494" d="M 206.5,241.5 C 207.675,241.281 208.675,241.614 209.5,242.5C 207.257,243.474 204.924,243.808 202.5,243.5C 203.833,242.833 205.167,242.167 206.5,241.5 Z"/></g>
<g><path style="opacity:0.459" fill="#878787" d="M 57.5,242.5 C 58.8333,242.5 60.1667,242.5 61.5,242.5C 61.8417,243.338 62.5084,243.672 63.5,243.5C 60.8333,244.833 58.1667,244.833 55.5,243.5C 56.4916,243.672 57.1583,243.338 57.5,242.5 Z"/></g>
<g><path style="opacity:0.127" fill="#a3a3a3" d="M 105.5,241.5 C 109.91,242.198 110.244,243.198 106.5,244.5C 105.584,244.457 104.917,244.124 104.5,243.5C 105.338,243.158 105.672,242.492 105.5,241.5 Z"/></g>
<g><path style="opacity:0.667" fill="#686868" d="M 143.5,242.5 C 144.5,242.5 145.5,242.5 146.5,242.5C 146.5,242.833 146.5,243.167 146.5,243.5C 144.167,244.833 141.833,244.833 139.5,243.5C 141.099,243.768 142.432,243.434 143.5,242.5 Z"/></g>
<g><path style="opacity:0.125" fill="#c6c6c6" d="M 240.5,242.5 C 241.919,243.451 243.585,243.784 245.5,243.5C 243.636,244.793 241.636,244.793 239.5,243.5C 239.624,242.893 239.957,242.56 240.5,242.5 Z"/></g>
<g><path style="opacity:0.267" fill="#adadad" d="M 273.5,237.5 C 272.167,239.5 272.167,241.5 273.5,243.5C 273.44,244.043 273.107,244.376 272.5,244.5C 271.167,241.833 271.167,239.167 272.5,236.5C 273.107,236.624 273.44,236.957 273.5,237.5 Z"/></g>
<g><path style="opacity:0.625" fill="#7a7a7a" d="M 283.5,237.5 C 284.167,239.167 284.833,240.833 285.5,242.5C 285.389,243.117 285.056,243.617 284.5,244C 280.797,244.579 277.131,244.412 273.5,243.5C 274.167,242.833 274.833,242.167 275.5,241.5C 277.782,242.39 280.115,242.556 282.5,242C 283.38,240.644 283.714,239.144 283.5,237.5 Z"/></g>
<g><path style="opacity:0.525" fill="#626262" d="M 299.5,240.5 C 301.249,242.531 303.249,242.865 305.5,241.5C 305.821,243.048 306.821,243.715 308.5,243.5C 305.97,244.776 303.303,244.776 300.5,243.5C 299.513,246.768 299.18,250.102 299.5,253.5C 298.206,249.267 298.206,244.934 299.5,240.5 Z"/></g>
<g><path style="opacity:0.133" fill="#b5b5b5" d="M 318.5,242.5 C 319.568,243.434 320.901,243.768 322.5,243.5C 320.483,244.874 318.483,244.707 316.5,243C 317.094,242.536 317.761,242.369 318.5,242.5 Z"/></g>
<g><path style="opacity:0.105" fill="#bebebe" d="M 331.5,242.5 C 332.833,242.5 334.167,242.5 335.5,242.5C 338.962,243.482 342.629,243.815 346.5,243.5C 339.833,244.833 333.167,244.833 326.5,243.5C 328.415,243.784 330.081,243.451 331.5,242.5 Z"/></g>
<g><path style="opacity:0.12" fill="#a1a1a1" d="M 356.5,241.5 C 356.328,242.492 356.662,243.158 357.5,243.5C 355.815,244.844 354.148,244.677 352.5,243C 353.901,242.59 355.234,242.09 356.5,241.5 Z"/></g>
</svg>
